<?xml version="1.0" encoding="UTF-8" standalone="no"?><!-- Generator: Gravit.io --><svg xmlns="http://www.w3.org/2000/svg" xmlns:xlink="http://www.w3.org/1999/xlink" style="isolation:isolate" viewBox="0 0 1088 687.962" width="1088pt" height="687.962pt"><defs><clipPath id="_clipPath_v912OZxDpX2wCM8Mf613q3cjzT5UsWHg"><rect width="1088" height="687.962"/></clipPath></defs><g clip-path="url(#_clipPath_v912OZxDpX2wCM8Mf613q3cjzT5UsWHg)"><g><path d=" M 426.83 622.604 C 415.355 626.637 402.608 624.392 393.202 616.68 C 381.424 606.795 377.731 590.508 374.727 575.427 L 365.839 530.822 L 384.446 543.634 C 397.827 552.847 411.509 562.356 420.773 575.701 C 430.038 589.046 434.082 607.264 426.638 621.704" fill="rgb(230,230,230)"/><path d=" M 425.239 676.608 C 427.122 662.89 429.059 648.997 427.738 635.132 C 426.565 622.819 422.808 610.792 415.16 600.932 C 411.101 595.707 406.161 591.231 400.563 587.704 C 399.104 586.783 397.76 589.096 399.214 590.014 C 408.899 596.135 416.391 605.174 420.608 615.827 C 425.266 627.675 426.014 640.589 425.211 653.174 C 424.726 660.785 423.697 668.346 422.66 675.897 C 422.491 676.605 422.899 677.324 423.594 677.542 C 424.306 677.733 425.039 677.317 425.239 676.608 L 425.239 676.608 Z " fill="rgb(242,242,242)"/><path d=" M 407.1 652.334 C 402.179 659.814 393.712 664.184 384.765 663.862 C 373.458 663.325 364.032 655.434 355.547 647.942 L 330.449 625.783 L 347.059 624.988 C 359.005 624.416 371.258 623.883 382.636 627.567 C 394.013 631.25 404.506 640.116 406.587 651.893" fill="rgb(230,230,230)"/><path d=" M 430.561 684.493 C 421.497 668.455 410.983 650.63 392.197 644.932 C 386.974 643.354 381.496 642.788 376.06 643.266 C 374.347 643.414 374.775 646.055 376.485 645.908 C 385.597 645.151 394.691 647.557 402.237 652.72 C 409.498 657.663 415.151 664.534 419.936 671.82 C 422.867 676.284 425.492 680.936 428.118 685.582 C 428.957 687.067 431.41 685.995 430.561 684.493 L 430.561 684.493 Z " fill="rgb(242,242,242)"/><path d=" M 673.51 363.198 L 475.894 526.983 C 470.716 531.264 463.051 530.547 458.758 525.379 L 375.454 424.868 C 371.173 419.69 371.89 412.025 377.058 407.732 L 574.674 243.947 C 579.851 239.666 587.517 240.384 591.809 245.551 L 675.114 346.063 C 679.395 351.24 678.677 358.906 673.51 363.198 Z " fill="rgb(204,204,204)"/><path d=" M 665.59 358.266 L 472.517 518.286 C 469.85 520.492 465.901 520.122 463.69 517.46 L 384.151 421.491 C 381.945 418.824 382.315 414.875 384.977 412.664 L 578.05 252.644 C 580.717 250.439 584.666 250.808 586.877 253.471 L 666.417 349.439 C 668.622 352.106 668.252 356.055 665.59 358.266 Z " fill="rgb(255,255,255)"/><path d=" M 674.491 391.763 L 634.78 388.046 L 663.202 365.677 L 678.513 384.151 C 679.735 385.594 679.946 387.638 679.045 389.301 C 678.756 389.852 678.362 390.341 677.883 390.74 C 676.935 391.521 675.713 391.889 674.491 391.763 Z " fill="rgb(204,204,204)"/><path d=" M 594.746 320.635 L 497.073 401.586 C 495.45 402.931 493.233 403.308 491.256 402.575 C 489.28 401.842 487.845 400.111 487.491 398.033 C 487.138 395.954 487.92 393.846 489.543 392.5 L 587.215 311.549 C 589.724 309.47 593.444 309.818 595.523 312.327 C 597.603 314.836 597.255 318.556 594.746 320.635 L 594.746 320.635 Z " fill="rgb(204,204,204)"/><path d=" M 546.943 327.684 L 481.071 382.279 C 478.562 384.358 474.843 384.01 472.763 381.501 C 470.684 378.992 471.032 375.273 473.541 373.193 L 539.413 318.598 C 541.922 316.519 545.642 316.867 547.721 319.376 C 549.801 321.885 549.452 325.604 546.943 327.684 L 546.943 327.684 Z " fill="rgb(204,204,204)"/><circle vector-effect="non-scaling-stroke" cx="444.87516213159864" cy="420.8999060641927" r="18.43865639694434" fill="rgb(25,46,77)"/><circle vector-effect="non-scaling-stroke" cx="591.5467184525328" cy="378.0393111441815" r="5.900370047022193" fill="rgb(230,230,230)"/><circle vector-effect="non-scaling-stroke" cx="607.4468443210409" cy="364.8612184439948" r="5.900370047022193" fill="rgb(230,230,230)"/><circle vector-effect="non-scaling-stroke" cx="623.346970189549" cy="351.6831257438081" r="5.900370047022193" fill="rgb(230,230,230)"/><path d=" M 529.303 674.218 L 542.849 674.217 L 549.292 621.968 L 529.3 621.97 L 529.303 674.218 L 529.303 674.218 Z " fill="rgb(255,184,184)"/><path d=" M 525.848 669.796 L 552.524 669.795 L 552.525 669.795 C 557.034 669.795 561.358 671.586 564.547 674.774 C 567.735 677.962 569.526 682.286 569.526 686.795 L 569.526 687.347 L 525.848 687.349 L 525.848 669.796 Z " fill="rgb(47,46,65)"/><path d=" M 480.687 674.218 L 494.233 674.217 L 500.677 621.968 L 480.685 621.97 L 480.687 674.218 L 480.687 674.218 Z " fill="rgb(255,184,184)"/><path d=" M 477.232 669.796 L 503.908 669.795 L 503.91 669.795 C 508.418 669.795 512.743 671.586 515.931 674.774 C 519.119 677.962 520.91 682.286 520.91 686.795 L 520.91 687.347 L 477.233 687.349 L 477.232 669.796 Z " fill="rgb(47,46,65)"/><path d=" M 494.28 658.232 L 494.278 658.232 L 482.759 658.228 C 480.079 658.238 477.878 656.114 477.792 653.435 L 477.43 643.357 C 474.518 562.765 471.506 479.429 490.155 441.972 L 490.301 441.678 L 552.043 439.443 L 564.439 553.15 C 564.968 558 564.774 562.902 563.864 567.695 L 547.478 654.042 C 547.02 656.461 544.859 658.181 542.399 658.084 L 529.46 657.664 C 528.09 657.61 526.804 656.993 525.904 655.959 C 525.005 654.925 524.571 653.566 524.707 652.202 L 534.871 572.34 C 535.217 568.893 534.904 565.412 533.949 562.082 L 521.308 517.892 C 521.093 517.139 520.379 516.64 519.598 516.695 C 518.817 516.75 518.18 517.344 518.073 518.12 L 499.204 653.944 C 498.855 656.397 496.758 658.222 494.28 658.232 Z " fill="rgb(47,46,65)"/><circle vector-effect="non-scaling-stroke" cx="501.66387038631274" cy="298.62424565299386" r="27.13760743798187" fill="rgb(255,184,184)"/><path d=" M 549.149 447.837 L 492.995 447.837 C 491.551 447.837 490.178 447.209 489.233 446.116 C 488.289 445.024 487.866 443.575 488.074 442.146 L 490.849 423.146 L 474.558 378.338 C 471.152 368.969 472.167 358.562 477.319 350.028 C 482.472 341.494 491.208 335.748 501.085 334.399 L 501.085 334.399 C 515.348 332.41 529.243 339.942 535.36 352.979 L 538.939 360.592 L 554.038 441.958 C 554.308 443.411 553.917 444.908 552.972 446.044 C 552.028 447.18 550.627 447.837 549.149 447.837 L 549.149 447.837 Z " fill="rgb(25,46,77)"/><path d=" M 430.608 495.498 C 434.03 494.703 436.924 492.434 438.511 489.3 C 440.099 486.167 440.217 482.491 438.833 479.262 L 482.59 380.404 L 457.559 374.099 L 422.418 473.256 C 417.03 476 414.545 482.34 416.634 488.014 C 418.723 493.689 424.727 496.904 430.608 495.498 L 430.608 495.498 Z " fill="rgb(255,184,184)"/><path d=" M 476.667 398.084 L 452.322 386.688 C 450.92 386.032 449.874 384.799 449.455 383.309 C 449.036 381.819 449.286 380.221 450.141 378.93 L 464.936 356.586 C 468.434 349.232 477.223 346.093 484.588 349.568 C 491.954 353.042 495.122 361.819 491.672 369.197 L 484.022 394.79 C 483.578 396.272 482.511 397.488 481.099 398.121 C 479.686 398.754 478.068 398.74 476.667 398.084 L 476.667 398.084 Z " fill="rgb(25,46,77)"/><path d=" M 613.14 241.106 C 614.209 244.452 613.742 248.1 611.864 251.068 C 609.985 254.037 606.888 256.021 603.407 256.486 L 540.903 344.696 L 522.67 326.424 L 589.842 245.463 C 589.439 239.429 593.612 234.048 599.556 232.936 C 605.5 231.825 611.335 235.335 613.14 241.106 L 613.14 241.106 Z " fill="rgb(255,184,184)"/><path d=" M 555.357 334.342 C 555.538 335.879 555.039 337.418 553.993 338.558 L 535.928 358.236 C 531.36 364.982 522.195 366.76 515.436 362.211 C 508.677 357.661 506.874 348.5 511.405 341.729 L 523.02 317.579 C 523.691 316.184 524.935 315.15 526.43 314.747 C 527.924 314.344 529.519 314.611 530.801 315.479 L 553.056 330.554 C 554.338 331.421 555.178 332.804 555.357 334.342 Z " fill="rgb(25,46,77)"/><path d=" M 537.321 287.265 C 537.304 284.809 536.962 282.366 536.306 279.999 C 531.934 263.843 515.793 254.146 499.595 256.579 C 496.445 255.676 493.184 255.22 489.907 255.223 L 489.907 255.223 C 472.682 255.223 458.027 267.777 455.383 284.798 L 442.299 369.028 L 513.013 369.028 L 524.431 295.524 C 524.855 292.792 524.954 290.02 524.728 287.265 L 537.321 287.265 Z " fill="rgb(47,46,65)"/><path d=" M 625.211 687.962 L 392.076 687.962 C 391.465 687.962 390.971 687.467 390.971 686.857 C 390.971 686.247 391.465 685.752 392.076 685.752 L 625.211 685.752 C 625.821 685.752 626.315 686.247 626.315 686.857 C 626.315 687.467 625.821 687.962 625.211 687.962 Z " fill="rgb(204,204,204)"/><path d=" M 860.081 145.47 C 863.354 145.155 866.598 146.306 868.941 148.613 C 871.284 150.92 872.484 154.147 872.219 157.424 L 908.358 173.329 L 891.119 184.457 L 859.445 167.647 C 853.845 166.819 849.75 161.934 849.912 156.276 C 850.074 150.618 854.443 145.976 860.081 145.47 L 860.081 145.47 Z " fill="rgb(160,97,106)"/><circle vector-effect="non-scaling-stroke" cx="1005.8523670332277" cy="98.49164588102502" r="27.137607437981842" fill="rgb(160,97,106)"/><path d=" M 956.737 485.445 L 943.191 485.444 L 936.747 433.195 L 956.74 433.197 L 956.737 485.445 L 956.737 485.445 Z " fill="rgb(160,97,106)"/><path d=" M 960.192 498.576 L 916.514 498.574 L 916.514 498.022 C 916.514 493.513 918.305 489.189 921.494 486 C 924.682 482.812 929.006 481.021 933.515 481.021 L 933.516 481.021 L 960.193 481.022 L 960.192 498.576 Z " fill="rgb(47,46,65)"/><path d=" M 1013.087 485.445 L 999.541 485.444 L 993.098 433.195 L 1013.09 433.197 L 1013.087 485.445 L 1013.087 485.445 Z " fill="rgb(160,97,106)"/><path d=" M 1016.542 498.576 L 972.864 498.574 L 972.864 498.022 C 972.864 493.513 974.655 489.189 977.844 486 C 981.032 482.812 985.356 481.021 989.865 481.021 L 989.866 481.021 L 1016.543 481.022 L 1016.542 498.576 Z " fill="rgb(47,46,65)"/><path d=" M 1012.445 474.317 C 1012.243 474.316 1012.04 474.304 1011.839 474.279 L 992.01 471.838 C 989.613 471.546 987.773 469.571 987.652 467.158 L 981.874 337.041 C 981.834 336.281 981.281 335.647 980.535 335.502 C 979.788 335.357 979.038 335.739 978.717 336.429 L 963.873 385.911 L 960.817 465.394 C 960.764 466.78 960.134 468.08 959.08 468.982 C 958.026 469.883 956.644 470.303 955.267 470.14 L 938.096 468.119 C 935.552 467.827 933.649 465.645 933.706 463.084 L 935.164 388.267 L 946.797 270.824 L 947.317 270.844 L 1018.056 273.57 L 1017.418 469.361 C 1017.408 472.1 1015.185 474.316 1012.445 474.317 L 1012.445 474.317 Z " fill="rgb(47,46,65)"/><path d=" M 1015.375 284.302 C 1015.332 284.302 1015.288 284.302 1015.245 284.301 L 944.002 282.434 C 942.59 282.397 941.26 281.761 940.344 280.685 C 939.429 279.609 939.015 278.194 939.205 276.794 L 952.895 176.037 C 954.624 162.277 962.13 149.904 973.535 142.014 C 983.571 135.106 996.102 132.871 1007.907 135.886 C 1032.774 142.187 1047.692 168.889 1041.161 195.409 L 1020.203 280.519 C 1019.647 282.735 1017.659 284.292 1015.375 284.302 L 1015.375 284.302 Z " fill="rgb(63,61,86)"/><path d=" M 921.91 204.291 C 917.216 204.297 912.621 202.932 908.691 200.364 L 867.144 173.106 C 865.913 172.298 865.103 170.987 864.933 169.524 C 864.762 168.062 865.249 166.599 866.262 165.53 L 872.52 158.922 C 873.917 157.44 876.079 156.964 877.969 157.721 L 924.377 176.202 L 967.368 145.501 C 972.849 141.587 980.067 141.091 986.031 144.22 C 991.996 147.348 995.691 153.568 995.587 160.302 C 995.483 167.037 991.598 173.139 985.539 176.082 L 932.407 201.89 C 929.135 203.474 925.546 204.295 921.91 204.291 L 921.91 204.291 Z " fill="rgb(63,61,86)"/><path d=" M 1015.256 124.444 C 1019.886 125.537 1025.471 126.376 1028.78 122.958 C 1029.366 122.313 1029.89 121.613 1030.344 120.869 L 1034.67 114.265 C 1037.984 109.206 1041.356 104.014 1042.758 98.131 C 1044.386 91.303 1043.21 84.107 1039.491 78.153 C 1035.773 72.199 1029.823 67.983 1022.973 66.45 C 1016.514 65.004 1010.194 62.515 1003.591 62.969 C 996.987 63.423 989.244 63.274 983.702 59.655 C 984.048 61.268 985.915 68.398 985.915 68.398 C 985.915 68.398 977.582 76.043 975.911 77.949 C 980.344 75.983 985.438 76.184 989.703 78.492 C 993.968 80.799 996.923 84.953 997.703 89.739 C 998.176 92.641 997.898 95.858 999.622 98.24 C 1001.261 100.505 1004.202 101.298 1006.673 102.606 C 1014.034 106.799 1017.244 115.728 1014.238 123.648 L 1015.256 124.444 Z " fill="rgb(47,46,65)"/><path d=" M 982.673 294.021 L 757.726 294.021 C 751.838 294.015 747.067 289.243 747.06 283.356 L 747.06 168.943 C 747.067 163.055 751.838 158.284 757.726 158.277 L 982.673 158.277 C 988.561 158.284 993.332 163.055 993.338 168.943 L 993.338 283.356 C 993.332 289.243 988.561 294.015 982.673 294.021 L 982.673 294.021 Z " fill="rgb(204,204,204)"/><path d=" M 980.087 286.265 L 760.311 286.265 C 757.278 286.261 754.82 283.803 754.817 280.77 L 754.817 171.529 C 754.82 168.496 757.278 166.038 760.311 166.034 L 980.087 166.034 C 983.12 166.038 985.578 168.496 985.582 171.529 L 985.582 280.77 C 985.578 283.803 983.12 286.261 980.087 286.265 L 980.087 286.265 Z " fill="rgb(255,255,255)"/><path d=" M 967.359 313.846 L 942.642 289.129 L 974.331 289.93 L 974.331 310.958 C 974.348 312.615 973.347 314.113 971.81 314.731 C 971.307 314.942 970.767 315.051 970.221 315.052 C 969.144 315.049 968.114 314.614 967.359 313.846 Z " fill="rgb(204,204,204)"/><path d=" M 953.328 221.251 L 842.147 221.251 C 840.3 221.251 838.593 220.265 837.669 218.665 C 836.745 217.065 836.745 215.094 837.669 213.494 C 838.593 211.894 840.3 210.908 842.147 210.908 L 953.328 210.908 C 956.184 210.908 958.499 213.223 958.499 216.079 C 958.499 218.935 956.184 221.251 953.328 221.251 L 953.328 221.251 Z " fill="rgb(204,204,204)"/><path d=" M 917.13 199.273 L 842.147 199.273 C 840.298 199.276 838.588 198.291 837.663 196.69 C 836.737 195.088 836.737 193.115 837.663 191.514 C 838.588 189.913 840.298 188.928 842.147 188.931 L 917.13 188.931 C 919.986 188.931 922.301 191.246 922.301 194.102 C 922.301 196.958 919.986 199.273 917.13 199.273 L 917.13 199.273 Z " fill="rgb(204,204,204)"/><circle vector-effect="non-scaling-stroke" cx="796.1235006861194" cy="205.09058118695262" r="16.159988500219356" fill="rgb(25,46,77)"/><circle vector-effect="non-scaling-stroke" cx="919.0655293663139" cy="258.19704954065134" r="5.1711989718425" fill="rgb(230,230,230)"/><circle vector-effect="non-scaling-stroke" cx="937.1647147187116" cy="258.19704954065134" r="5.1711989718425" fill="rgb(230,230,230)"/><circle vector-effect="non-scaling-stroke" cx="955.2639000711091" cy="258.19704954065134" r="5.1711989718425" fill="rgb(230,230,230)"/><path d=" M 979.19 280.415 C 979.551 277.147 981.342 274.207 984.079 272.386 C 986.817 270.564 990.221 270.05 993.375 270.979 L 1016.339 238.861 L 1023.703 258.011 L 1000.767 285.576 C 998.811 290.887 993.191 293.896 987.686 292.58 C 982.181 291.263 978.531 286.037 979.19 280.415 L 979.19 280.415 Z " fill="rgb(160,97,106)"/><path d=" M 1005.494 278.682 C 1005.133 278.712 1004.77 278.703 1004.41 278.655 C 1002.951 278.46 1001.653 277.626 1000.869 276.379 L 996.016 268.679 C 994.924 266.959 994.998 264.745 996.202 263.102 L 1025.595 222.713 L 1006.49 173.461 C 1002.94 164.445 1007.273 154.248 1016.228 150.546 L 1016.228 150.546 C 1021.153 148.481 1026.744 148.729 1031.466 151.222 C 1036.188 153.716 1039.546 158.193 1040.617 163.425 L 1052.47 221.292 C 1054.147 229.593 1051.36 238.166 1045.122 243.892 L 1008.428 277.399 C 1007.619 278.14 1006.587 278.591 1005.494 278.682 L 1005.494 278.682 Z " fill="rgb(63,61,86)"/><path d=" M 1067.173 501.233 L 834.038 501.233 C 833.427 501.233 832.933 500.738 832.933 500.128 C 832.933 499.518 833.427 499.023 834.038 499.023 L 1067.173 499.023 C 1067.783 499.023 1068.277 499.518 1068.277 500.128 C 1068.277 500.738 1067.783 501.233 1067.173 501.233 Z " fill="rgb(204,204,204)"/><path d=" M 303.261 226.248 L 78.314 226.248 C 72.426 226.241 67.655 221.47 67.648 215.582 L 67.648 101.17 C 67.655 95.282 72.426 90.511 78.314 90.504 L 303.261 90.504 C 309.148 90.511 313.92 95.282 313.926 101.17 L 313.926 215.582 C 313.92 221.47 309.148 226.241 303.261 226.248 L 303.261 226.248 Z " fill="rgb(204,204,204)"/><path d=" M 300.675 218.491 L 80.899 218.491 C 77.866 218.488 75.408 216.03 75.405 212.997 L 75.405 103.755 C 75.408 100.722 77.866 98.264 80.899 98.261 L 300.675 98.261 C 303.708 98.264 306.166 100.722 306.169 103.755 L 306.169 212.997 C 306.166 216.03 303.708 218.488 300.675 218.491 L 300.675 218.491 Z " fill="rgb(255,255,255)"/><path d=" M 287.947 246.072 L 263.23 221.355 L 294.919 222.156 L 294.919 243.185 C 294.936 244.842 293.935 246.34 292.398 246.958 C 291.894 247.168 291.354 247.277 290.809 247.279 C 289.732 247.275 288.701 246.841 287.947 246.072 Z " fill="rgb(204,204,204)"/><path d=" M 273.916 153.477 L 162.735 153.477 C 159.879 153.477 157.564 151.162 157.564 148.306 C 157.564 145.45 159.879 143.135 162.735 143.135 L 273.916 143.135 C 276.772 143.135 279.087 145.45 279.087 148.306 C 279.087 151.162 276.772 153.477 273.916 153.477 Z " fill="rgb(204,204,204)"/><path d=" M 237.718 131.5 L 162.735 131.5 C 159.879 131.5 157.564 129.184 157.564 126.328 C 157.564 123.472 159.879 121.157 162.735 121.157 L 237.718 121.157 C 240.574 121.157 242.889 123.472 242.889 126.328 C 242.889 129.184 240.574 131.5 237.718 131.5 L 237.718 131.5 Z " fill="rgb(204,204,204)"/><circle vector-effect="non-scaling-stroke" cx="116.71126342114968" cy="137.31725994515935" r="16.159988500219363" fill="rgb(25,46,77)"/><circle vector-effect="non-scaling-stroke" cx="239.653292101344" cy="190.42373934790908" r="5.171198971842443" fill="rgb(230,230,230)"/><circle vector-effect="non-scaling-stroke" cx="257.7524774537415" cy="190.42373934790908" r="5.171198971842443" fill="rgb(230,230,230)"/><circle vector-effect="non-scaling-stroke" cx="275.851662806139" cy="190.42373934790908" r="5.171198971842443" fill="rgb(230,230,230)"/><path d=" M 293.932 79.511 C 290.838 80.625 288.396 83.052 287.264 86.139 C 286.132 89.226 286.425 92.656 288.065 95.506 L 262.187 125.328 L 282.527 128.022 L 303.983 99.29 C 308.691 96.149 310.306 89.983 307.742 84.937 C 305.178 79.89 299.245 77.56 293.932 79.511 L 293.932 79.511 Z " fill="rgb(255,184,184)"/><path d=" M 121.151 91.45 C 122.268 94.543 121.958 97.971 120.305 100.814 C 118.651 103.656 115.823 105.619 112.583 106.176 L 106.143 145.131 L 91.086 131.193 L 99.51 96.338 C 98.922 90.708 102.638 85.529 108.159 84.282 C 113.681 83.035 119.262 86.115 121.151 91.45 L 121.151 91.45 Z " fill="rgb(255,184,184)"/><path d=" M 161.591 485.445 L 175.137 485.444 L 181.581 433.195 L 161.589 433.197 L 161.591 485.445 L 161.591 485.445 Z " fill="rgb(255,184,184)"/><path d=" M 158.136 481.022 L 184.812 481.021 L 184.814 481.021 C 189.322 481.021 193.647 482.812 196.835 486 C 200.023 489.189 201.814 493.513 201.814 498.022 L 201.814 498.574 L 158.137 498.576 L 158.136 481.022 Z " fill="rgb(47,46,65)"/><path d=" M 91.982 485.445 L 105.528 485.444 L 111.972 433.195 L 91.98 433.197 L 91.982 485.445 L 91.982 485.445 Z " fill="rgb(255,184,184)"/><path d=" M 88.527 481.022 L 115.203 481.021 L 115.204 481.021 C 119.713 481.021 124.038 482.812 127.226 486 C 130.414 489.189 132.205 493.513 132.205 498.022 L 132.205 498.574 L 88.528 498.576 L 88.527 481.022 Z " fill="rgb(47,46,65)"/><circle vector-effect="non-scaling-stroke" cx="158.76344347183039" cy="101.58255161874483" r="27.1376074379819" fill="rgb(255,184,184)"/><path d=" M 155.51 468.088 L 153.267 325.106 C 153.255 324.27 152.622 323.573 151.79 323.482 C 150.959 323.391 150.19 323.934 149.997 324.748 L 113.214 464.603 C 112.643 466.909 110.538 468.502 108.163 468.424 L 87.954 467.56 C 86.565 467.5 85.265 466.862 84.368 465.8 C 83.471 464.737 83.06 463.348 83.234 461.969 L 114.446 282.247 L 114.51 281.74 L 201.447 285.853 L 202.014 285.879 L 183.371 468.387 C 183.168 470.978 181.012 472.98 178.413 472.99 L 160.482 472.99 C 157.768 472.979 155.56 470.802 155.51 468.088 L 155.51 468.088 Z " fill="rgb(47,46,65)"/><path d=" M 224.175 297.965 L 98.019 287.612 C 96.476 287.485 95.079 286.647 94.242 285.344 C 93.405 284.041 93.223 282.422 93.75 280.966 L 113.617 226.039 L 114.76 160.847 C 114.844 156.066 116.839 151.519 120.299 148.22 C 123.76 144.92 128.397 143.145 133.176 143.289 L 141.565 135.684 L 172.303 135.684 L 174.98 139.193 L 196.368 142.48 C 204.189 143.714 210.282 149.921 211.372 157.764 L 229.509 292.346 C 229.7 293.767 229.269 295.201 228.326 296.28 C 227.383 297.36 226.021 297.98 224.588 297.982 C 224.451 297.982 224.313 297.977 224.175 297.965 Z " fill="rgb(47,46,65)"/><path d=" M 199.595 148.799 L 253.385 133.039 L 277.73 100.988 C 279.108 99.172 281.547 98.527 283.643 99.424 L 298.843 105.921 C 300.154 106.481 301.161 107.577 301.609 108.93 C 302.057 110.284 301.902 111.764 301.184 112.996 L 282.991 144.216 C 280.029 149.323 275.52 153.356 270.115 155.732 L 206.847 183.7 L 199.595 148.799 Z " fill="rgb(47,46,65)"/><path d=" M 96.395 172.375 C 89.857 167.665 86.253 159.883 86.889 151.851 L 89.249 120.574 C 89.451 117.983 91.609 115.982 94.208 115.976 L 94.252 115.976 L 112.076 116.135 C 113.554 116.148 114.95 116.819 115.884 117.964 C 116.819 119.11 117.195 120.612 116.911 122.063 L 113.604 138.936 L 137.205 148.908 L 117.331 187.572 L 96.395 172.375 Z " fill="rgb(47,46,65)"/><path d=" M 174.55 69.042 C 174.55 69.042 146.171 53.761 130.702 71.796 C 130.702 71.796 136.596 118.033 136.596 118.033 L 167.034 121.872 C 167.034 121.872 168.139 101.181 175.386 101.583 C 182.633 101.985 205.14 75.876 174.55 69.042 Z " fill="rgb(47,46,65)"/><path d=" M 253.962 500.128 L 20.827 500.128 C 20.217 500.128 19.723 499.633 19.723 499.023 C 19.723 498.413 20.217 497.918 20.827 497.918 L 253.962 497.918 C 254.573 497.918 255.067 498.413 255.067 499.023 C 255.067 499.633 254.573 500.128 253.962 500.128 Z " fill="rgb(204,204,204)"/></g></g></svg>