<svg width="478" height="90" viewBox="0 0 478 90" fill="none" xmlns="http://www.w3.org/2000/svg">
<path d="M100.232 7.78912C92.5242 4.2658 84.3389 1.69793 75.795 0.264709C74.7195 2.11597 73.5245 4.62408 72.688 6.59478C63.6006 5.28097 54.5787 5.28097 45.6166 6.59478C44.7801 4.62408 43.5254 2.11597 42.5096 0.264709C33.9062 1.69793 25.7208 4.2658 18.0672 7.78912C2.59277 30.6012 -1.58954 52.8759 0.501607 74.8519C10.7781 82.3166 20.6962 86.8553 30.441 89.8414C32.8309 86.6164 34.9818 83.1526 36.8339 79.5101C33.3089 78.1962 29.963 76.5838 26.7367 74.6727C27.5731 74.0759 28.4096 73.419 29.1863 72.762C48.6639 81.66 69.7606 81.66 88.999 72.762C89.8355 73.419 90.6122 74.0759 91.4487 74.6727C88.2222 76.5838 84.8766 78.1962 81.3514 79.5101C83.2036 83.1526 85.3546 86.6164 87.7442 89.8414C97.4831 86.8553 107.461 82.3166 117.684 74.8519C120.252 49.4124 113.615 27.317 100.232 7.78912ZM39.5225 61.2961C33.6672 61.2961 28.8875 55.9813 28.8875 49.4722C28.8875 42.963 33.5477 37.6479 39.5225 37.6479C45.4374 37.6479 50.2767 42.963 50.1572 49.4722C50.1572 55.9813 45.4374 61.2961 39.5225 61.2961ZM78.7825 61.2961C72.927 61.2961 68.1412 55.9813 68.1412 49.4722C68.1412 42.963 72.8075 37.6479 78.7825 37.6479C84.6974 37.6479 89.5367 42.963 89.4172 49.4722C89.4172 55.9813 84.7571 61.2961 78.7825 61.2961Z" fill="#5665F0"/>
<path d="M159.088 19.0137H184.487C190.581 19.0137 195.779 19.969 200.021 21.8801C204.263 23.7912 207.43 26.4189 209.521 29.8226C211.612 33.2266 212.688 37.1081 212.688 41.5274C212.688 45.8269 211.612 49.7087 209.402 53.2319C207.191 56.6957 203.845 59.5021 199.364 61.5326C194.883 63.5631 189.327 64.5784 182.695 64.5784H159.088V19.0137ZM182.396 52.993C186.518 52.993 189.685 51.9777 191.896 49.8879C194.107 47.8574 195.242 44.9908 195.242 41.4677C195.242 38.183 194.226 35.5553 192.254 33.5849C190.283 31.6142 187.295 30.5989 183.292 30.5989H175.346V52.993H182.396Z" fill="#5665F0"/>
<path d="M252.246 64.5217C248.72 63.6259 245.554 62.3121 242.746 60.5205V49.7114C244.897 51.3836 247.705 52.6974 251.29 53.7724C254.874 54.8474 258.34 55.3849 261.686 55.3849C263.239 55.3849 264.434 55.2057 265.211 54.7877C265.987 54.3696 266.406 53.8919 266.406 53.2946C266.406 52.6377 266.167 52.1002 265.748 51.6822C265.33 51.2641 264.494 50.9058 263.239 50.5475L255.412 48.816C250.931 47.8007 247.764 46.3077 245.852 44.5161C243.941 42.7245 243.045 40.2763 243.045 37.2903C243.045 34.782 243.881 32.5728 245.494 30.7214C247.167 28.8701 249.497 27.4368 252.544 26.4215C255.591 25.4067 259.117 24.8692 263.239 24.8692C266.884 24.8692 270.229 25.2275 273.277 26.0636C276.323 26.8396 278.833 27.8548 280.805 29.0492V39.2611C278.773 38.0667 276.384 37.1111 273.755 36.3945C271.066 35.6778 268.318 35.3195 265.509 35.3195C261.446 35.3195 259.415 36.0362 259.415 37.4097C259.415 38.0667 259.714 38.5444 260.371 38.9028C261.029 39.2611 262.163 39.5597 263.836 39.918L270.349 41.1124C274.591 41.8287 277.757 43.1425 279.849 44.9939C281.94 46.8452 282.956 49.5322 282.956 53.1752C282.956 57.1168 281.223 60.2816 277.757 62.5509C274.292 64.8801 269.393 66.0144 263.06 66.0144C259.356 65.8949 255.771 65.4172 252.246 64.5217Z" fill="#5665F0"/>
<path d="M299.094 63.1497C295.389 61.2984 292.522 58.8502 290.669 55.7448C288.757 52.6393 287.861 49.1162 287.861 45.1746C287.861 41.2931 288.817 37.7696 290.789 34.7243C292.761 31.6188 295.628 29.23 299.392 27.4387C303.156 25.7068 307.697 24.811 312.955 24.811C319.467 24.811 324.845 26.1846 329.146 28.9314V40.8154C327.653 39.8001 325.861 38.9043 323.829 38.3071C321.798 37.6502 319.647 37.3516 317.376 37.3516C313.313 37.3516 310.207 38.0682 307.877 39.5613C305.606 41.0543 304.471 42.9653 304.471 45.3538C304.471 47.6829 305.546 49.5939 307.817 51.0869C310.027 52.5796 313.254 53.3559 317.436 53.3559C319.587 53.3559 321.738 53.0573 323.829 52.4004C325.92 51.7435 327.772 51.0272 329.266 50.0717V61.597C324.486 64.4636 318.93 65.8969 312.656 65.8969C307.339 65.8969 302.858 64.9414 299.094 63.1497Z" fill="#5665F0"/>
<path d="M346.18 63.1497C342.416 61.2984 339.548 58.8502 337.576 55.685C335.605 52.5199 334.589 48.9967 334.589 45.0552C334.589 41.1737 335.605 37.6502 337.576 34.6048C339.548 31.5591 342.416 29.1703 346.12 27.4387C349.824 25.7068 354.305 24.811 359.449 24.811C364.588 24.811 369.069 25.6471 372.773 27.4387C376.477 29.1703 379.345 31.5591 381.317 34.6048C383.289 37.6502 384.245 41.114 384.245 45.0552C384.245 48.937 383.289 52.5199 381.317 55.685C379.345 58.8502 376.537 61.3581 372.773 63.1497C369.009 64.9414 364.588 65.8969 359.449 65.8969C354.365 65.8969 349.944 64.9414 346.18 63.1497ZM365.962 51.624C367.515 50.0717 368.352 47.9217 368.352 45.3538C368.352 42.7264 367.575 40.6959 365.962 39.1432C364.349 37.5905 362.198 36.8141 359.509 36.8141C356.701 36.8141 354.544 37.5905 352.931 39.1432C351.378 40.6959 350.541 42.7264 350.541 45.3538C350.541 47.9815 351.318 50.0717 352.931 51.624C354.544 53.2365 356.701 54.0129 359.509 54.0129C362.198 53.9531 364.409 53.1768 365.962 51.624Z" fill="#5665F0"/>
<path d="M424.217 27.1972V41.2311C422.544 40.1561 420.393 39.6187 417.764 39.6187C414.299 39.6187 411.608 40.6936 409.758 42.7835C407.903 44.8737 406.947 48.1583 406.947 52.5773V64.521H390.996V26.5402H406.651V38.6631C407.487 34.2438 408.921 30.9596 410.833 28.8693C412.745 26.7791 415.255 25.6448 418.3 25.6448C420.57 25.6448 422.544 26.1823 424.217 27.1972Z" fill="#5665F0"/>
<path d="M478 17.7017V64.5799H462.049V56.0403C460.673 59.2652 458.641 61.7137 455.893 63.3855C453.14 65.0577 449.733 65.8938 445.67 65.8938C442.085 65.8938 438.92 64.998 436.229 63.2661C433.542 61.5346 431.453 59.086 430.019 56.0403C428.585 52.9352 427.868 49.4714 427.868 45.6497C427.806 41.6484 428.585 38.0655 430.196 34.9003C431.75 31.7355 434.02 29.287 436.888 27.4954C439.756 25.7038 443.041 24.808 446.745 24.808C454.335 24.808 459.42 28.0926 462.049 34.7212V17.7017H478ZM459.659 51.3227C461.27 49.77 462.107 47.6798 462.107 45.1719C462.107 42.7234 461.332 40.7526 459.717 39.26C458.105 37.7669 455.954 36.9906 453.26 36.9906C450.569 36.9906 448.418 37.7669 446.807 39.3197C445.192 40.872 444.417 42.8428 444.417 45.3511C444.417 47.8589 445.192 49.8297 446.807 51.3825C448.418 52.9352 450.511 53.7116 453.198 53.7116C455.893 53.7116 458.044 52.9352 459.659 51.3227Z" fill="#5665F0"/>
<path d="M227.391 28.8115C231.973 28.8115 235.696 25.4691 235.696 21.3468C235.696 17.224 231.973 13.8822 227.391 13.8822C222.802 13.8822 219.086 17.224 219.086 21.3468C219.086 25.4691 222.802 28.8115 227.391 28.8115Z" fill="#5665F0"/>
<path d="M235.696 33.9433C230.617 36.1525 224.284 36.2123 219.086 33.9433V64.5784H235.696V33.9433Z" fill="#5665F0"/>
</svg>
