<?xml version="1.0" encoding="UTF-8" standalone="no"?><!-- Generator: Gravit.io --><svg xmlns="http://www.w3.org/2000/svg" xmlns:xlink="http://www.w3.org/1999/xlink" style="isolation:isolate" viewBox="0 0 85 50" width="85pt" height="50pt"><defs><clipPath id="_clipPath_M4CMkX6Jid4yrPMB1b7QPpKQUE6QHxWk"><rect width="85" height="50"/></clipPath></defs><g clip-path="url(#_clipPath_M4CMkX6Jid4yrPMB1b7QPpKQUE6QHxWk)"><g><path d=" M 65.325 31.225 C 65.064 31.238 64.842 31.036 64.83 30.775 L 64.189 17.152 C 64.176 16.891 64.378 16.67 64.639 16.657 C 67.379 16.528 69.705 18.645 69.834 21.385 L 70.053 26.03 C 70.182 28.77 68.065 31.097 65.325 31.225 Z " fill="rgb(255,255,255)"/><path d=" M 64.875 16.753 C 64.799 16.753 64.721 16.755 64.644 16.759 C 64.439 16.769 64.28 16.943 64.29 17.148 L 64.932 30.77 C 64.941 30.975 65.116 31.132 65.321 31.124 C 68 30.998 70.078 28.715 69.951 26.035 L 69.732 21.39 C 69.61 18.788 67.454 16.753 64.875 16.753 Z  M 65.303 31.328 C 64.998 31.328 64.743 31.087 64.728 30.78 L 64.087 17.157 C 64.072 16.841 64.317 16.57 64.634 16.556 C 67.428 16.424 69.804 18.588 69.936 21.38 L 70.154 26.026 C 70.218 27.378 69.752 28.674 68.84 29.675 C 67.929 30.677 66.682 31.264 65.33 31.327 C 65.321 31.327 65.312 31.328 65.303 31.328 Z " fill="rgb(55,26,69)"/><path d=" M 65.701 30.622 C 65.888 29.785 66.025 28.935 66.11 28.076 C 66.143 27.819 66.173 27.561 66.198 27.301 C 67.577 27.017 68.738 26.165 69.438 25.01 L 69.487 26.057 C 69.595 28.345 67.927 30.313 65.701 30.622 Z " fill="rgb(185,175,190)"/><path d=" M 64.758 17.219 L 65.391 30.654 C 67.77 30.493 69.6 28.45 69.487 26.057 L 69.268 21.412 C 69.156 19.019 67.138 17.155 64.758 17.219 Z  M 65.302 31.792 C 64.751 31.792 64.291 31.357 64.264 30.802 L 63.623 17.179 C 63.596 16.606 64.04 16.119 64.612 16.092 C 67.658 15.948 70.256 18.311 70.4 21.358 L 70.619 26.004 C 70.762 29.051 68.4 31.647 65.352 31.791 L 65.352 31.791 C 65.335 31.792 65.319 31.792 65.302 31.792 Z " fill="rgb(20,36,61)"/><path d=" M 19.675 18.775 C 19.936 18.763 20.158 18.964 20.17 19.226 L 20.811 32.848 C 20.824 33.109 20.622 33.331 20.361 33.343 C 17.621 33.472 15.295 31.355 15.166 28.615 L 14.947 23.97 C 14.818 21.23 16.935 18.904 19.675 18.775 Z " fill="rgb(255,255,255)"/><path d=" M 19.679 18.876 C 17 19.003 14.922 21.286 15.049 23.965 L 15.268 28.61 C 15.394 31.29 17.675 33.366 20.356 33.241 C 20.561 33.232 20.72 33.057 20.71 32.853 L 20.068 19.23 C 20.059 19.026 19.88 18.865 19.679 18.876 Z  M 20.125 33.45 C 17.438 33.45 15.192 31.331 15.064 28.62 L 14.846 23.975 C 14.782 22.622 15.248 21.326 16.16 20.325 C 17.071 19.323 18.317 18.737 19.67 18.673 C 19.988 18.658 20.257 18.904 20.272 19.221 L 20.913 32.843 C 20.928 33.16 20.683 33.43 20.366 33.445 C 20.285 33.448 20.205 33.45 20.125 33.45 Z " fill="rgb(55,26,69)"/><path d=" M 20.003 32.781 C 17.726 32.718 15.84 30.902 15.732 28.589 L 15.684 27.581 C 16.518 28.578 17.735 29.24 19.095 29.35 C 19.314 30.525 19.618 31.671 20.003 32.781 Z " fill="rgb(185,175,190)"/><path d=" M 19.609 19.346 C 17.23 19.507 15.4 21.55 15.513 23.943 L 15.732 28.589 C 15.844 30.982 17.859 32.843 20.242 32.781 L 19.609 19.346 Z  M 20.124 33.915 C 17.192 33.915 14.74 31.601 14.6 28.642 L 14.381 23.997 C 14.238 20.949 16.6 18.353 19.648 18.209 L 19.648 18.209 C 20.221 18.184 20.709 18.626 20.736 19.199 L 21.377 32.821 C 21.404 33.394 20.96 33.882 20.388 33.909 C 20.3 33.913 20.212 33.915 20.124 33.915 Z " fill="rgb(20,36,61)"/><path d=" M 65.736 25.556 C 65.428 38.387 54.778 48.54 41.947 48.233 C 29.116 47.926 18.963 37.275 19.27 24.444 C 19.577 11.613 30.228 1.46 43.059 1.767 C 55.89 2.074 66.043 12.725 65.736 25.556 Z " fill="rgb(255,255,255)"/><path d=" M 42.488 1.862 C 36.519 1.862 30.875 4.119 26.538 8.253 C 22.065 12.517 19.52 18.268 19.372 24.446 C 19.067 37.201 29.195 47.826 41.949 48.131 C 54.701 48.437 65.328 38.308 65.634 25.553 L 65.736 25.556 L 65.634 25.553 C 65.782 19.375 63.515 13.509 59.25 9.035 C 54.986 4.562 49.235 2.017 43.056 1.869 C 42.867 1.864 42.677 1.862 42.488 1.862 Z  M 42.511 48.341 C 42.322 48.341 42.134 48.339 41.944 48.334 C 29.078 48.026 18.86 37.308 19.168 24.441 C 19.317 18.209 21.885 12.407 26.398 8.105 C 30.91 3.803 36.828 1.518 43.061 1.666 C 49.294 1.815 55.096 4.382 59.398 8.895 C 63.699 13.408 65.987 19.326 65.837 25.559 C 65.534 38.235 55.123 48.341 42.511 48.341 Z " fill="rgb(55,26,69)"/><path d=" M 65.736 25.556 L 65.737 25.556 L 65.736 25.556 Z  M 42.489 2.327 C 36.639 2.327 31.108 4.538 26.859 8.589 C 22.475 12.767 19.981 18.403 19.836 24.458 C 19.537 36.956 29.462 47.367 41.96 47.667 C 54.455 47.967 64.87 38.041 65.17 25.543 C 65.468 13.044 55.544 2.632 43.045 2.334 C 42.86 2.329 42.674 2.327 42.489 2.327 Z  M 42.511 48.806 C 42.318 48.806 42.127 48.803 41.933 48.799 C 28.811 48.485 18.39 37.553 18.704 24.43 C 19.018 11.308 29.942 0.889 43.072 1.201 C 49.429 1.353 55.346 3.972 59.734 8.575 C 64.121 13.177 66.454 19.213 66.302 25.57 C 65.992 38.498 55.374 48.806 42.511 48.806 Z " fill="rgb(20,36,61)"/><path d=" M 65.647 26.151 C 65.607 30.698 64.094 34.907 61.538 38.378 C 59.622 40.98 51.801 45.495 42.193 45.496 C 33.284 45.498 25.221 40.677 23.351 38.041 C 20.858 34.526 19.419 30.291 19.459 25.743 C 19.565 13.71 29.948 8.812 42.703 8.925 C 55.458 9.037 65.753 14.117 65.647 26.151 Z " fill="rgb(25,46,77)"/><path d=" M 65.647 26.151 L 65.649 26.151 L 65.647 26.151 Z  M 42.275 9.489 C 35.862 9.489 30.464 10.788 26.645 13.255 C 22.301 16.061 20.073 20.264 20.025 25.748 C 19.987 30.03 21.297 34.167 23.813 37.714 C 25.6 40.232 33.486 44.93 42.189 44.93 L 42.193 44.93 C 51.84 44.928 59.369 40.368 61.082 38.042 C 63.66 34.541 65.043 30.427 65.081 26.146 C 65.212 11.293 49.472 9.551 42.698 9.491 C 42.557 9.49 42.416 9.489 42.275 9.489 Z  M 42.189 46.063 C 32.973 46.063 24.849 41.131 22.89 38.369 C 20.235 34.627 18.853 30.259 18.893 25.738 C 18.945 19.849 21.346 15.329 26.031 12.303 C 30.12 9.663 35.887 8.295 42.708 8.359 C 49.529 8.419 55.271 9.884 59.313 12.597 C 63.944 15.704 66.265 20.266 66.213 26.156 C 66.173 30.677 64.714 35.019 61.994 38.714 C 60.108 41.275 52.364 46.061 42.193 46.063 L 42.189 46.063 Z " fill="rgb(20,36,61)"/><path d=" M 57.798 28.529 C 57.661 28.529 57.524 28.516 57.387 28.49 C 55.77 28.183 54.803 26.124 55.228 23.893 C 55.617 21.85 57.036 20.371 58.514 20.371 C 58.651 20.371 58.788 20.384 58.925 20.41 C 60.231 20.658 61.113 22.051 61.179 23.754 C 60.995 24.757 60.754 25.743 60.459 26.707 C 59.815 27.821 58.82 28.529 57.798 28.529 Z " fill="rgb(195,186,199)"/><path d=" M 54.281 34.427 C 54.129 34.427 53.977 34.403 53.828 34.352 C 52.98 34.065 52.564 33.032 52.899 32.044 C 53.175 31.23 53.874 30.702 54.586 30.702 C 54.738 30.702 54.89 30.726 55.039 30.776 C 55.886 31.063 56.302 32.097 55.968 33.084 C 55.692 33.898 54.993 34.427 54.281 34.427 Z " fill="rgb(195,186,199)"/><path d=" M 57.563 40.864 L 46.943 40.864 C 51.688 38.962 55.1 36.52 56.392 34.763 C 58.181 32.334 59.567 29.62 60.459 26.707 C 60.746 26.212 60.964 25.636 61.083 25.007 C 61.165 24.579 61.195 24.158 61.179 23.754 C 61.447 22.288 61.593 20.781 61.607 19.245 C 61.618 18.045 61.546 16.899 61.398 15.806 C 63.651 18.228 65.121 21.562 65.081 26.146 C 65.043 30.427 63.66 34.541 61.082 38.042 C 60.511 38.818 59.292 39.843 57.563 40.864 Z " fill="rgb(20,36,61)"/><path d=" M 58.644 40.864 L 57.563 40.864 C 59.292 39.843 60.511 38.818 61.082 38.042 C 63.66 34.541 65.043 30.427 65.081 26.146 C 65.121 21.562 63.651 18.228 61.398 15.806 C 61.356 15.495 61.308 15.188 61.254 14.885 C 64.054 17.604 65.689 21.317 65.647 26.15 C 65.607 30.699 64.092 34.907 61.539 38.378 C 61.004 39.104 60.009 39.98 58.644 40.864 Z " fill="rgb(15,27,46)"/><path d=" M 60.459 26.707 C 60.754 25.743 60.995 24.757 61.179 23.754 C 61.195 24.158 61.165 24.579 61.083 25.007 C 60.964 25.636 60.746 26.212 60.459 26.707 Z " fill="rgb(133,130,144)"/><path d=" M 63.752 16.147 C 63.626 16.147 63.499 16.104 63.394 16.018 L 63.335 15.969 L 63.287 15.903 C 59.416 10.373 51.872 7.154 42.59 7.072 C 33.263 6.984 25.663 10.177 21.758 15.816 L 21.729 15.854 C 21.53 16.096 21.172 16.132 20.931 15.933 C 20.696 15.74 20.656 15.399 20.836 15.159 C 24.96 9.213 32.899 5.852 42.6 5.939 C 52.246 6.025 60.121 9.415 64.206 15.242 C 64.358 15.446 64.358 15.735 64.189 15.939 C 64.077 16.076 63.915 16.147 63.752 16.147 Z " fill="rgb(20,36,61)"/><path d=" M 24.582 32.948 C 24.582 32.948 20.96 21.044 27.399 16.37 C 32.076 12.975 38.211 12.099 41.136 12.099 C 42.238 12.099 42.883 12.223 42.823 12.384 C 42.823 12.384 32.611 14.761 28.553 22.782 C 25.423 28.967 24.582 32.948 24.582 32.948 Z " fill="rgb(195,186,199)"/></g></g></svg>