<svg xmlns="http://www.w3.org/2000/svg" viewBox="0 0 1088 687.962" width="1450.667" height="917.283" xmlns:v="https://vecta.io/nano"><defs><clipPath id="A"><path d="M0 0h1088v687.962H0z"/></clipPath></defs><g clip-path="url(#A)" fill="#DADADA"><path fill-opacity="0" d="M0 0h1088v687.962H0z"/><path d="M.201 388.273l1.003 290.462c.2-2.207 1.604-14.042 2.808-26.078l3.209-28.083c.602-3.41 1.204-10.632 1.605-16.048 1.003-12.236 6.82-67.4 8.225-77.229l2.006-13.038c.401-3.411 1.404-12.437 2.005-20.06l2.006-20.059c.602-3.411 2.006-14.243 3.21-24.072L29.086 431a368.13 368.13 0 0 0 2.006-18.054c.803-7.221 1.806-13.64 2.207-14.242s1.203-8.826 2.006-18.054c.602-9.227 1.604-17.451 2.006-18.053.2-.602 1.203-7.422 1.805-15.045s1.605-17.05 2.207-20.862l1.805-12.035 4.012-30.09 4.212-32.095 3.812-31.092c.601-3.41 2.808-19.859 5.215-36.91l4.814-34.101c.201-1.805 1.204-8.224 2.006-14.242.602-6.018 1.605-13.239 2.006-16.048l2.006-15.646L72.615 94H36.308 0l.201 294.273zm431.078-277.222c-4.613-1.405-4.814 15.646-.401 19.658q1.806 1.605 252.148 114.138l146.435 65.796 36.107 16.047c45.239 20.239-432.082-215.038-434.289-215.639zm-323.76 41.723c-.602 2.407-1.204 8.225-1.204 12.838 0 8.225.201 8.425 9.629 11.234 5.215 1.605 29.287 9.829 53.559 18.254 26.278 9.027 45.535 14.844 48.143 14.042 2.607-.602 3.209-.402 1.404.601-1.605 1.204 6.218 4.815 23.068 10.431 14.242 4.614 27.682 9.428 30.09 10.632s6.017 1.605 8.023.802c1.806-.802 2.809-.802 2.006 0-1.203 1.404 23.269 12.036 30.691 13.44 1.605.401 10.632 3.611 19.859 7.222s18.054 6.017 19.659 5.416 2.407-.402 1.805.601c-1.605 2.408 35.505 14.644 40.119 13.039 2.608-.802 3.009-.602 1.203.802-2.005 1.204 0 2.608 6.821 4.414l9.428 2.607-1.404 48.344-2.408 86.657-1.203 38.514 6.619 2.006c7.623 2.407 70.008 18.254 101.1 25.676l56.167 14.042 42.927 10.23 6.62 1.003-1.003-10.631c-.802-6.018-1.805-38.916-2.608-73.418l-1.404-62.586 7.422 2.207 7.222 2.206.2 15.245c0 8.425.401 17.452.802 20.261s1.204 19.457 1.806 37.11l1.003 32.697c.2.401 1.203 0 2.407-.602 1.204-.803 1.605-2.608 1.003-4.012-.401-1.404.401-3.21 2.006-3.811 2.006-.803 2.608-.402 1.605 1.404-1.204 1.805-.803 1.805 1.604-.201 2.608-2.006 5.015-1.805 13.841 1.204l10.833 3.61.601 10.03c1.605 30.29 3.411 43.73 6.419 44.332 2.006.601 2.207.401.803-.803-2.608-1.805-5.015-52.756-2.407-52.756 1.805 0 26.679 7.622 33.298 10.23 4.012 1.605 4.414 3.009 4.414 19.658 0 14.042-.602 18.054-3.009 19.057-2.006.802-2.809 2.808-2.207 6.218.602 2.809.602 5.015.401 5.015-.401 0-4.413-1.404-9.027-3.009s-7.823-2.206-7.422-1.203c1.405 2.006 10.833 4.614 87.059 23.871 37.511 9.628 54.562 13.239 54.562 11.434 0-1.405-2.207-30.29-5.015-64.191l-4.413-62.385c.401-.401 2.607-.2 4.814.401 5.015 1.404 6.018 5.015 7.623 27.883l4.011 52.957c.402 2.608 1.405 14.443 2.207 26.479s2.006 22.466 2.808 22.867c1.404.803 24.673 7.021 89.867 23.671 14.643 3.811 27.08 7.221 27.481 7.823.602.602 1.605 5.817 2.408 11.634 1.203 9.629 1.003 10.431-2.608 9.228-2.006-.602-11.835-3.009-21.865-5.216l-72.014-17.05c-12.035-2.809-22.065-4.815-22.266-4.614-.401.401.201 5.617 1.003 11.635 1.404 8.625 6.219 71.813 6.62 85.654 0 2.006 13.64 2.607 60.981 2.607h60.78v-5.817c0-3.209-1.805-22.065-4.012-41.724l-16.85-160.676c-.401-5.617-.2-10.431.602-10.231 4.012.402 14.643 5.617 12.236 5.818-1.805.2-1.203 1.003 1.605 2.206 2.608 1.003 5.817 1.204 6.82.401 1.404-.802 1.605-.2.602 1.405-1.003 1.805-.401 2.005 2.808 1.003 2.608-.803 4.213-.402 4.213 1.002s1.404 1.806 3.209 1.204c1.806-.802 2.608-.401 1.605 1.003-.802 1.404 0 1.805 2.809 1.003 2.206-.802 4.613-.401 5.416.802.601 1.204 2.006 1.605 3.008 1.003.803-.601 2.006.201 2.608 1.806 1.003 2.407 18.656 8.625 22.066 7.622.802-.2 1.404.402 1.404 1.404s1.404 2.408 3.209 3.009c1.605.602 2.408.402 1.806-.802s-.401-2.006.802-2.006c1.003 0 2.207 1.003 2.608 2.207s3.009 2.407 6.018 2.407c2.808.2 4.814 1.003 4.212 1.805-.401 1.003.602 1.605 2.407 1.605 2.608 0 14.042 4.814 16.65 7.021.2.2 3.209 21.062 6.419 46.337l7.021 51.954 5.416 41.523c4.413 34.102 4.814 35.706 9.026 35.706 3.21 0 4.213-1.003 3.611-3.61-.401-2.207-1.203-8.626-2.006-14.644-.602-6.018-2.206-17.251-3.209-24.874-2.608-18.053-3.21-21.864-4.614-35.104l-2.006-14.041a650.45 650.45 0 0 1-4.212-31.093c-2.006-17.853-8.827-63.588-9.428-63.989-.803-.602-5.015-2.006-115.944-43.329l-200.595-74.22-84.25-31.092-95.283-35.104-58.574-21.464c-4.814-1.806-8.224-3.611-7.823-4.413.401-.602-1.605-1.204-4.413-1.404-3.009-.201-19.859-5.818-37.511-12.437l-51.152-19.057c-52.556-19.257-59.978-22.266-58.774-24.071.601-1.204.2-1.404-1.204-.602-3.009 1.805-50.751-14.643-49.146-17.051.602-1.003-.2-1.203-1.805-.802-3.611 1.605-56.769-18.254-56.167-20.862.401-1.203-.802-1.605-2.407-1.003s-7.422-.401-12.838-2.206c-7.823-2.608-9.829-4.012-9.027-6.62 1.003-2.608.803-2.808-.802-.602s-9.228 0-40.721-11.434c-25.877-9.428-39.116-15.245-39.517-17.251-.401-1.805-1.605-3.209-2.608-3.209-1.204 0-1.404.802-.802 2.006 1.604 2.607-.803 2.607-8.626-.201-3.611-1.204-6.018-2.808-5.617-3.41.402-.803-2.206-1.605-5.817-1.806-5.215-.2-6.82.602-7.823 4.012h0zm593.761 259.37c3.812 1.003 4.815 2.608 5.216 8.625l.2 7.222.803-6.62c.602-4.012 1.805-6.419 3.209-5.817 1.404.401 8.225 2.808 15.446 5.215s14.242 5.015 15.647 5.818c3.61 2.407 6.017 54.561 2.607 54.561-1.404 0-1.805-1.002-1.203-2.005.602-1.204.2-2.006-.803-2.006-1.203 0-2.206 1.203-2.206 2.808 0 3.009-2.809 2.808-18.254-2.006-10.832-3.41-11.835-6.018-11.835-29.688 0-7.823-.803-15.245-1.605-16.649-.803-1.204-1.204 7.622-.602 19.858l.602 22.266-5.617-1.404c-3.209-.802-11.835-3.209-19.257-5.616l-13.64-4.012-.402-13.24-.401-13.439-1.003 13.239-1.203 13.239-14.443-4.012c-8.024-2.006-14.242-4.814-14.042-6.018.201-1.003 3.41-5.215 7.021-9.026s8.425-10.431 10.631-14.644c4.012-8.224 8.827-10.23 10.431-4.413.803 2.808 1.003 2.407 1.204-1.003.201-5.215 8.024-9.027 17.251-8.024 4.814.401 6.018-.2 5.617-3.009-.201-2.607.802-3.41 2.808-2.607 1.605.802 5.216 1.805 7.823 2.407h0zM200.595 239.03c0 1.404-1.404 16.85-3.009 34.503-4.413 48.544-4.814 46.136 6.62 49.145 5.215 1.405 27.882 8.024 50.55 14.443 49.948 14.443 49.948 14.443 46.337 12.036-1.404-1.003-1.805-2.407-.802-3.009 1.605-1.003 3.41-31.092 3.611-60.58v-14.041l-51.553-17.452c-31.895-10.832-51.754-16.449-51.754-15.045zm537.394 60.379c-2.206 2.207 2.006 43.128 5.015 48.745 5.015 9.829 27.482 16.85 23.871 7.623-.602-1.605 0-3.009 1.204-3.009 1.214-.011 2.195-.993 2.206-2.207 0-1.003-.802-1.404-2.006-.802-1.003.601-2.006.601-2.206-.401-1.003-8.626-1.003-12.839.401-13.842.802-.401 1.203.803.802 2.809s.201 5.015 1.204 6.619c2.206 3.611 2.407-.601.601-17.853-1.002-8.224-2.206-11.835-3.811-11.233-1.203.602-2.407-.401-2.407-2.006s1.404-2.407 3.21-1.805c2.407.602 2.206.2-.602-2.207-6.419-5.215-7.823-1.805-6.219 17.051 1.003 14.844.803 17.853-1.604 17.853-5.216 0-8.024-6.018-9.027-19.658-.401-7.422-1.605-15.246-2.608-17.452-1.003-2.608-1.404.401-1.003 8.224.401 6.82 0 13.641-1.003 15.045-1.003 1.805-1.805-2.207-1.805-10.632 0-7.221-.602-14.844-1.404-16.85-1.003-2.808-.602-3.209 2.206-2.206 2.006.802 3.009.601 2.207-.602-1.204-2.006-5.617-2.808-7.222-1.204h0zm50.35 26.679c.2 16.048 4.212 45.736 6.419 47.14 4.613 2.809 5.616 1.605 5.616-7.422 0-8.625.201-8.826 5.015-7.021 2.809 1.003 5.216 1.204 5.216.402 1.805-11.033 1.404-12.437-3.21-13.641-2.608-.602-6.018-2.608-7.422-4.413-2.206-2.808-2.006-3.009 2.407-1.605 16.85 5.015 19.659 2.207 4.614-4.413-5.416-2.407-8.626-4.212-7.221-4.413 1.203 0 4.011-.602 6.017-1.203 3.009-1.003 3.21-.803.602 1.003-2.407 1.805-2.006 2.206 2.006 1.805 3.21-.401 4.814.401 4.614 1.805-.401 1.404.401 2.608 1.404 2.608 1.204 0 2.006-1.204 2.006-2.808 0-2.407-20.862-13.24-25.877-13.24-1.203 0-2.206 2.408-2.206 5.416zm47.942 17.051c-.803 7.221 2.608 40.32 4.413 45.335 2.608 7.02 6.82 4.212 6.82-4.414-.2-9.628 2.808-8.224 6.419 2.809 6.82 20.26 14.644 17.853 8.225-2.608-4.413-14.042-6.62-17.652-5.015-7.422l1.203 7.021-3.009-6.62c-1.604-3.41-4.212-6.419-5.817-6.419s-3.811 3.009-4.814 6.419l-1.806 6.62.201-7.422c.201-4.012 1.204-6.82 2.207-6.219s1.203 0 .802-1.604c-.602-1.605-1.805-2.608-2.808-2.407s-2.006-3.611-2.407-8.425c-.602-8.626-.402-8.827 5.215-8.425 3.21.2 5.817 1.404 5.817 2.808 0 1.605-1.203 1.805-3.61.401-5.216-2.608-5.818-2.407-5.818 3.009 0 5.015 9.829 14.643 11.835 11.835 1.605-2.206 6.821-3.209 5.416-1.003-.401.802-.2 2.808 1.003 4.413 1.204 2.207 1.806 1.003 1.806-4.012 0-11.233-2.207-16.047-8.425-19.257-4.213-2.206-5.617-2.407-4.413-.602 1.003 1.806.401 2.006-2.006 1.204-2.006-.802-4.815-1.404-6.419-1.404s-2.809-.803-2.809-1.806 2.006-1.404 4.614-.802c3.611.802 3.811.602 1.404-1.204-4.012-2.808-8.024-2.808-8.224.201h0zm42.526 22.066c0 3.61 1.204 14.643 2.407 24.673 2.207 15.847 2.808 18.053 6.419 18.053 3.41 0 3.811-1.203 3.41-6.619-.601-6.219-.401-6.419 4.213-5.416 3.811 1.003 5.616.401 7.221-2.608 3.21-6.018 2.608-16.85-.802-21.865-2.407-3.611-18.656-12.638-22.266-12.638-.401 0-.803 3.009-.602 6.42h0zm41.122 23.068c3.811 34.502 3.41 33.299 9.829 36.909 3.41 2.006 8.626 4.213 11.635 5.015 5.416 1.204 5.616 1.003 5.015-4.413-.803-6.619-10.833-12.035-15.847-8.425-2.408 1.605-2.207 1.806.401 1.003 1.805-.602 3.209.201 3.209 1.605s-1.605 2.006-3.61 1.605c-2.006-.602-3.411-2.608-3.21-4.614s1.003-3.209 1.805-2.808c.803.602 1.605 0 1.605-1.003 0-1.204 1.805-2.207 4.012-2.207s4.012-.602 4.012-1.203c0-2.207-5.015-6.219-7.221-5.416-1.204.401-2.207-.602-2.207-2.408 0-2.808.602-2.808 4.814 0 6.419 4.213 5.817 1.204-.802-4.613-5.817-4.815-5.617-4.815 5.416-2.207 2.006.602 3.209-1.003 3.611-4.814.601-5.416-2.207-7.422-4.815-3.009-.802 1.404-.601 1.605.803.802s2.407-.401 2.407.602c0 3.21-5.216 2.608-8.826-.802-5.015-5.216-6.219-3.41-5.617 8.425 1.003 15.847-.802 12.838-2.407-3.812l-1.204-13.64 5.015 2.407c2.809 1.204 5.015 3.009 5.015 4.012s1.003 1.204 2.207.401c2.607-1.605-7.623-8.826-12.838-8.826-3.009 0-3.21 1.404-2.207 11.434h0z"/><path d="M179.131 489.975c0 9.227.402 10.832 3.21 9.829 2.808-.803 2.808-.602-.201 1.805-3.61 3.009-4.814 10.832-6.619 41.122-1.003 16.048-.602 18.656 2.006 18.656 1.805 0 2.607-1.003 2.006-2.006-2.006-3.21 2.407-2.408 5.817 1.203 2.808 2.808 2.808 3.41-.803 7.222-2.206 2.407-3.41 5.014-2.808 6.017.602.803-1.404 1.605-4.413 1.605-14.042 0-4.212 2.006 75.023 15.045 36.107 5.817 36.508 5.817 36.508 2.006 0-1.806-1.204-2.407-3.41-1.605-3.009 1.003-2.809.401.602-3.611 3.41-3.811 4.413-7.823 4.814-19.859.2-8.224 1.003-26.077 1.605-39.717 1.203-20.862 1.003-24.674-1.605-25.476-1.605-.401-16.048-3.611-32.095-7.021l-50.751-11.233c-30.089-6.82-28.886-7.021-28.886 6.018zm83.047 63.588c1.805 1.806 1.605 3.009-.602 5.216-1.805 1.805-2.608 6.419-2.608 12.236.201 6.018.803 7.422 1.204 3.811.401-3.009 1.605-5.014 2.608-4.413s1.404 2.407.601 4.012c-.601 1.605 0 3.009 1.404 3.009s.201 2.207-2.607 4.814c-4.413 4.012-6.82 4.815-12.838 3.812-9.629-1.404-9.428-1.204-9.428-10.431 0-5.817-.602-7.021-2.207-5.416-4.012 4.012-4.413 8.224-1.203 10.631 3.009 2.207 2.808 2.407-.201 2.608-4.814 0-6.218-3.21-4.814-11.033 1.003-5.416 2.808-7.221 8.224-9.428 5.216-1.805 6.82-3.209 6.018-5.817-1.003-2.808.201-3.811 5.416-4.413 3.611-.401 7.021-1.003 7.823-1.003.602-.201 2.006.602 3.21 1.805h0zm143.024-39.718c0 15.847-.602 36.91-1.204 46.94-1.404 17.251-1.203 18.053 3.009 19.257 2.207.602 4.614.2 5.216-.803.602-.802 3.811-1.203 7.021-.401 5.215 1.003 6.018.401 6.018-3.209 0-2.809 2.005-5.216 5.616-6.82 3.009-1.204 6.018-3.411 7.021-4.815.802-1.404 2.608-2.006 4.213-1.404 1.404.602 3.811-.401 5.215-2.206s1.605-3.009.401-3.009c-2.206 0-2.206-3.611.201-7.422.802-1.204.2-2.809-1.003-3.21-1.404-.602-.201-1.203 2.808-1.203 6.419-.201 6.62-1.806-2.808 35.906l-6.419 26.077c-.201 1.605-2.608 3.21-4.815 3.611-5.215.802-5.616 3.009-1.203 7.422 3.009 2.808 2.407 3.009-5.617 1.805-9.829-1.604-9.829-1.604-10.431-5.215-.802-4.814-5.817-11.233-8.425-10.23-1.203.401-2.808-1.605-3.41-4.815-.602-3.009-.2-6.017.803-6.218 1.003-.401 1.203-1.805.601-2.808-.802-1.204-.601-1.605.602-1.003 1.003.601 4.614 1.604 7.823 2.206 5.015 1.003 6.018.401 6.018-2.808 0-4.213-2.407-5.416-3.61-1.806-.402 1.405-2.408 1.405-6.219-.401-3.009-1.404-6.018-1.805-7.021-1.003-.802.803-1.805 8.626-2.006 17.251l-.802 15.647 9.628 2.206c5.417 1.204 13.24 2.408 17.252 2.809 4.212.2 7.622 1.003 7.622 1.805 0 1.003-1.003 1.605-2.006 1.605-1.203 0-1.003 1.203.401 2.808 1.806 2.006 3.009 2.207 4.012.401 1.003-1.404 1.605-1.003 1.605 1.204 0 2.006 1.404 3.611 3.21 3.611 1.604 0 2.607.802 2.006 1.805-.602.802.601 3.21 2.808 5.216 4.212 3.811 5.617 15.044 2.006 15.044-1.003 0-2.006 1.404-2.006 3.21 0 1.604 1.003 2.407 2.006 1.805 1.203-.802 2.006 3.611 2.006 11.835 0 7.422.802 13.239 2.006 13.239s2.006-2.006 2.206-4.613c.201-4.213.201-4.213 1.806.602.802 2.808 1.604 3.811 1.805 2.407.201-1.204 1.605-2.407 3.21-2.407s3.009-1.405 3.009-3.21c0-1.605-1.003-2.407-2.207-1.805-1.204.802-2.608-.602-3.21-3.009-.802-3.21-1.604-3.611-2.808-1.605-1.003 1.404-1.805-6.62-1.805-19.257 0-12.036.602-21.263 1.404-20.461s1.203 4.413 1.003 8.225c-.401 6.017.2 6.82 5.617 8.023 7.221 1.605 8.023 2.809 5.817 8.425-1.003 3.009-2.809 4.213-5.817 3.611-2.207-.401-4.012 0-4.012 1.003 0 2.808 5.817 4.012 11.032 2.006 4.614-1.805 5.015-2.608 4.012-11.033-1.203-9.628-1.604-9.227 11.033-9.829 3.21-.201 4.814-1.204 4.413-3.009-.602-2.407 0-2.407 2.407-.2 1.806 1.404 3.21 3.61 3.21 5.014 0 2.408 4.212 5.015 8.224 5.015 1.003 0 1.806-2.407 2.006-5.616l.201-5.416 1.604 5.014c.803 2.809 1.605 13.44 1.806 23.47.2 22.467 3.209 25.074 3.41 3.009.201-15.245.201-15.446 5.416-14.844 2.808.401 5.617-.401 6.419-1.605 1.204-1.805 2.006-1.805 3.41.201s1.605 1.404 1.003-1.806c-1.003-4.011-.401-4.613 2.808-3.811 2.006.602 3.812.201 3.812-.602 0-1.003-1.605-2.206-3.41-2.607-2.006-.402-1.204-.602 1.805-.201 3.21.401 5.617-.401 6.419-2.407 1.003-2.407 3.21-2.808 10.632-1.605 10.832 1.605 14.844 5.216 8.023 7.222l-4.413 1.203 4.413.201c2.608.2 4.414.802 4.414 1.604-.803 5.417.401 35.105 1.404 34.102.802-.602 2.006-6.419 2.808-12.838 1.404-11.234 1.404-11.434 3.009-4.815 1.203 5.015 2.006 6.018 3.209 3.611 1.204-1.805.602-5.817-1.203-10.23-3.811-8.827-3.811-11.434-.201-6.62 2.809 3.611 3.009 3.611 5.015 0 1.806-3.21 2.407-3.21 4.213-.602 1.604 2.608 2.206 2.207 3.209-1.404 1.806-6.218 3.811-5.817 4.413.802.602 7.824 9.027 11.836 9.629 4.414l.602-5.417c0-1.203 1.604-2.407 3.209-2.407 2.808 0 3.811 8.826 3.611 32.697 0 2.608 1.805 3.41 8.024 3.41h8.023l-1.604-54.762-2.809-76.427-1.203-22.065-33.098-7.623-54.161-12.437-44.131-10.23-50.55-12.236c-15.045-3.812-28.484-6.821-29.487-6.821-1.405 0-2.207 10.03-2.207 28.685h0zm104.109 4.614c.602.401 1.203 8.626 1.605 17.853.401 15.045 0 17.051-3.009 17.051-6.62-.201-35.506-7.222-34.904-8.626.201-.802.401-3.209.401-5.416s2.608-6.82 5.818-10.431l5.616-6.419 1.404 7.422c2.006 10.632 4.614 9.027 6.219-3.811l1.404-11.234 7.221 1.405c4.213.802 7.824 1.805 8.225 2.206h0zm15.245 2.808c2.808 1.003 7.422 2.408 10.23 2.809 5.617 1.003 9.027 3.209 5.216 3.209-1.404 0-2.407 1.806-2.407 4.012s-.803 4.012-2.006 4.012c-3.009 0-8.425 11.635-6.018 13.039 3.21 2.006 0 5.416-4.213 4.413-2.206-.602-3.41-.201-2.607.802.602 1.003 3.61 1.806 6.82 1.806s6.419 1.003 7.221 2.407c1.003 1.404.402 1.805-1.604 1.203-1.806-.802-7.222-2.006-12.437-2.607l-9.228-1.405v-17.852c0-19.258.402-19.859 11.033-15.848h0zm76.627 23.47c2.207.803 2.809.602 1.806-1.003-.803-1.404-.602-2.407.602-2.407 1.404 0 4.212 29.287 3.008 31.694-.601 1.204-38.915-7.021-40.319-8.425-2.808-2.808 12.838-15.646 19.056-16.048 3.411-.2 7.422-1.604 8.827-3.008 2.206-2.408 2.006-2.608-1.003-1.605-2.207.802-3.21.602-2.408-.803.803-1.203 2.608-1.604 4.213-1.003s4.212 1.806 6.218 2.608h0zm-61.382 23.871c12.437 2.808 23.47 6.218 24.272 7.422 1.003 1.404 1.605.602 1.605-2.207 0-5.215 1.204-5.416 20.461-1.404 23.67 5.015 21.664 2.809 21.664 24.072 0 18.454 0 18.655-5.215 19.859-3.611 1.003-4.815 2.407-4.012 4.413.601 1.805 1.203 4.012 1.203 5.215s1.806 1.605 4.012 1.003c3.611-1.003 4.012 0 3.811 7.222s-.401 7.622-1.805 3.41c-1.605-5.015-1.605-5.015-1.805-.402-.201 2.608-1.003 4.012-2.207 3.411-3.611-2.207-10.03-2.809-10.03-.803 0 1.003 2.006 1.806 4.614 2.006 3.009.201 2.207.803-2.608 1.805-6.017 1.405-22.867 0-25.074-2.407-.401-.401-1.204-3.209-1.805-6.218l-1.003-5.617 10.431 1.404 12.236 1.605c1.003 0 2.006-.802 2.608-2.006.401-1.203-1.806-2.206-5.416-2.407-3.411 0-15.647-1.605-27.081-3.611l-20.661-3.41-8.425-20.661c-4.614-11.434-7.823-21.664-6.82-23.068.802-1.405.602-2.006-.602-1.204-1.003.602-3.21-2.006-5.015-5.817-1.805-3.611-2.407-6.821-1.605-6.821s11.635 2.408 24.272 5.216h0zm457.156-57.771c0 1.805 1.003 7.02 1.806 11.433 1.003 4.414 2.407 13.842 3.209 21.063s2.207 13.841 3.41 15.045c1.405 1.404 1.806.601 1.003-2.408-.601-2.607-.2-5.215.803-5.817s1.805 1.404 1.805 4.614c0 5.215 1.003 6.018 11.835 9.027 13.641 4.012 18.254 3.209 17.251-3.009-.401-2.407-1.805-12.437-3.008-22.467-1.204-9.829-2.408-18.053-2.608-18.254-.201 0-8.225-3.009-17.853-6.419-15.446-5.416-17.653-5.817-17.653-2.808h0zm-361.672 32.496c.802 2.808 3.811 4.814 9.829 6.218 5.015 1.204 9.428 3.009 10.029 4.012s-3.41 3.812-8.625 6.419l-9.629 4.413.803 24.874c.602 22.066 1.003 25.075 5.015 29.087 2.206 2.206 5.014 4.011 5.817 3.61.802-.2 3.009.803 4.614 2.608 3.008 3.009 1.404 4.212-4.012 3.209-.803-.2-2.809.602-4.213 1.806-2.006 1.605-2.808 1.404-3.611-.401-1.203-3.009-1.604-.201-1.805 15.245 0 5.817.802 12.437 2.006 14.443 1.204 2.206 2.407 2.607 2.407 1.203 0-4.012 7.422-2.808 8.626 1.605.802 2.808 2.808 4.012 7.021 4.012 3.41 0 8.425.802 11.233 2.006 4.614 1.605 5.215 3.009 5.215 11.033 0 5.015 1.003 9.026 2.006 9.026 1.204 0 2.006-4.413 2.006-9.829v-9.829l7.623 1.605c4.012.802 12.637 2.206 19.056 3.009 10.03 1.203 11.434 1.805 11.434 5.616 0 2.408 1.003 5.818 2.006 7.422 1.605 2.408 2.006 1.806 2.006-2.407 0-7.021 2.006-8.023 12.036-6.419 6.018 1.003 7.623 1.806 5.617 3.21-1.605 1.203-.201 1.404 4.212.602 4.614-1.003 6.219-.803 5.416.802-.802 1.204 0 2.207 2.207 2.207 3.009 0 3.209.401.602 2.005s-2.608 2.006.401 2.006c1.805 0 3.811-1.203 4.212-2.607.803-1.806 1.204-1.806 1.204 0 .2 1.404 1.203 2.607 2.407 2.607s1.805-1.805 1.203-4.011-.2-4.012.803-4.012 1.805.601 1.805 1.404c0 1.003 3.009 1.404 6.419 1.404 3.812-.201 6.419-1.404 6.219-2.608-.401-1.203.2-2.206 1.203-2.206s2.207 2.006 2.608 4.413c.602 4.613 1.204 4.613 30.29 5.215l29.889.602-1.204-7.623c-.602-4.212-2.207-19.859-3.21-34.703-4.413-62.184-4.212-60.178-8.826-61.181-2.206-.602-19.457-4.614-38.313-9.027l-46.137-10.832-59.176-14.042-48.343-11.233c-.803 0-1.003 1.805-.401 4.012h0zm93.076 25.275c6.018 1.805 11.835 4.212 12.838 5.215 1.404 1.605 1.203 1.806-.401.803-1.405-.803-1.806.2-1.204 3.009.802 3.209 1.605 3.41 2.808 1.404 1.204-1.805 1.806-.401 1.806 3.811 0 3.41.601 7.823 1.404 9.829 1.003 2.608.602 3.21-1.805 2.407-1.605-.802-3.009-.2-3.009 1.405 0 1.404 1.604 2.006 3.811 1.404 2.006-.401 3.611-1.806 3.611-2.809s1.003-1.203 2.206-.601c1.204 1.003.803 2.407-1.605 4.212-3.41 2.407-3.209 2.608 1.204 2.809 2.608 0 4.413.601 3.611 1.203-.602.602-8.225-.401-16.85-2.407s-16.249-3.41-17.051-3.21c-1.003.201-1.605-2.006-1.605-5.215 0-3.009-.601-10.23-1.203-16.048-.803-5.616-1.003-10.431-.401-10.431.401 0 5.817 1.405 11.835 3.21h0zm-20.862 39.317c9.829 2.006 11.033 3.008 16.649 13.038 3.41 6.018 5.617 11.635 5.015 12.838-.802 1.003-.201 1.605 1.003 1.404 2.207-.601 12.638 16.449 11.233 18.054-1.604 1.404-33.298-4.413-33.298-6.018 0-1.003-.803-1.404-1.806-.602-1.003.602-6.419-7.02-12.035-16.85-10.632-18.655-11.836-21.463-7.623-19.056 1.404.802 1.805.602.802-.401s-2.808-1.806-3.811-1.806c-1.204 0-2.608-1.203-3.21-2.808-1.003-3.009 5.818-2.407 27.081 2.207zm37.31 10.832c14.443 3.209 20.461 7.221 18.455 12.437-.401 1.404-.2 2.206.803 1.604 1.604-1.003 12.035 13.24 17.853 24.072l2.206 4.212-18.254-3.209-18.455-3.41-7.823-12.838-11.835-19.659c-4.814-7.823-4.213-7.823 17.05-3.209zm-317.14 35.304c-1.404 1.405-2.407 3.611-2.407 5.015 0 3.21-8.425 3.41-11.635.201-1.805-1.805-2.407-.802-2.407 4.814 0 4.012-.802 8.024-2.006 8.626-1.003.602-2.006 3.811-2.006 6.82 0 7.221 3.21 8.224 25.476 8.224h16.448l-.401-8.625c-.2-4.614-1.203-9.428-2.006-10.832-.802-1.204-.802-3.611-.2-5.216.802-2.206-.402-3.41-3.611-3.811-2.608-.401-4.413-1.805-4.012-3.21.201-1.203-.401-2.407-1.404-2.407s-3.009-.401-4.614-1.003c-1.404-.602-3.811 0-5.215 1.404zm588.144 12.437c1.806 14.844 3.21 21.263 5.015 21.263.803 0 1.204-3.811 1.003-8.625l-.401-8.425 1.204 8.024 1.404 8.023 12.838.602c18.053.803 18.053.803 15.847-13.038-1.003-6.42-2.407-12.237-3.21-12.839-.802-.802-9.026-2.607-18.254-4.413l-16.649-3.009 1.203 12.437h0z"/></g></svg>