<svg width="673" height="357" viewBox="0 0 673 357" fill="none" xmlns="http://www.w3.org/2000/svg">
<g clip-path="url(#clip0)">
<path opacity="0.1" d="M28.5372 48.8334C29.6275 55.7489 32.414 62.4283 32.4382 69.4226C32.5291 92.2767 4.79156 106.314 0.545221 128.768C-1.97472 142.091 4.55532 155.704 13.7628 165.641C22.9703 175.579 34.7098 182.742 45.5225 190.918C75.4395 213.578 98.4995 244.074 112.15 279.028C114.882 286.052 117.232 293.295 118.007 300.792C118.571 306.242 118.304 311.819 119.582 317.142C124.64 338.27 150.288 346.47 171.974 347.838C206.901 350.006 241.862 344.169 274.189 330.773C281.458 327.745 288.963 324.306 296.766 325.16C303.005 325.844 308.572 329.217 314.048 332.287C330.174 341.335 347.337 348.399 365.161 353.325C375.035 356.05 385.4 358.121 395.485 356.352C425.773 351.011 441.868 314.29 471.586 306.26C492.146 300.707 513.541 310.408 531.98 321.06C550.419 331.712 569.452 343.981 590.739 344.011C619.136 344.047 642.482 322.562 661.745 301.706C665.786 297.328 669.893 292.75 671.819 287.112C675.726 275.667 669.396 262.811 660.037 255.12C650.678 247.429 638.878 243.614 627.605 239.218C608.497 231.765 590.263 222.246 573.226 210.829C562.201 203.441 551.522 195.084 543.98 184.184C537.493 174.785 533.598 163.891 529.248 153.33C519.714 130.203 506.23 106.701 483.714 95.8496C465.329 86.9841 443.976 87.9772 423.568 87.741C393.499 87.408 362.666 83.7928 336.006 69.8889C313.49 58.147 294.997 39.6106 272.148 28.5105C235.802 10.8704 194.254 14.3282 155.092 14.9943C136.271 15.3152 113.9 17.1925 95.8244 11.0278C82.4554 6.46789 75.5741 -2.85179 60.2182 0.902727C39.2166 6.01977 25.1813 27.4992 28.5372 48.8334Z" fill="#192E4D"/>
<path d="M585.359 215.297C584.409 212.15 584.508 208.779 585.644 205.693C587.461 200.994 591.889 197.603 593.446 192.8C596.342 183.88 588.54 175.53 583.754 167.445C579.364 159.945 577.375 151.281 578.054 142.617C578.799 133.316 582.609 124.42 582.9 115.094C583.16 106.404 580.344 97.9505 577.563 89.7148C575.268 82.9082 572.929 76.0229 569.046 69.9793C561.705 58.5523 548.663 51.3703 535.251 50.1833C528.921 49.6202 522.73 51.6791 516.509 50.8737C507.871 49.7594 499.706 47.5188 490.898 47.2403C482.532 46.992 473.283 48.0517 467.582 54.1801C463.227 58.8732 461.834 65.6495 457.848 70.6636C452.19 77.779 442.298 80.2195 436.041 86.808C433.337 89.7199 431.439 93.2856 430.533 97.1539C429.627 101.022 429.744 105.06 430.874 108.869C431.74 111.679 433.157 114.289 434.078 117.08C437.949 128.744 432.867 141.218 429.795 153.112C429.449 154.083 429.386 155.133 429.614 156.139C430.098 157.593 431.625 158.356 432.891 159.216C437.034 162.038 439.148 167.149 439.554 172.145C439.96 177.14 438.803 182.118 437.664 186.999C434.763 199.407 431.134 212.699 421.569 220.953C419.832 216.813 417.779 212.812 415.427 208.987C409.575 199.504 405.244 187.792 405.171 176.583C405.167 176.549 405.167 176.515 405.171 176.48C405.171 175.875 405.202 175.269 405.238 174.664C405.995 161.438 411.714 148.679 411.586 135.514C411.586 134.448 411.556 133.38 411.496 132.31C410.75 121.041 405.335 110.619 399.126 101.184C394.492 94.1415 389.27 87.3409 382.583 82.2118C372.243 74.3455 359.104 70.9301 346.195 69.1255C333.286 67.3209 321.541 65.6253 308.529 64.7533C294.536 63.8147 279.138 63.2878 268.077 71.899C253.654 83.1262 252.854 104.812 241.86 119.406C235.318 128.09 224.899 134.799 221.452 144.664C220.52 142.243 219.743 139.765 219.126 137.246C219.09 137.076 219.053 136.913 219.017 136.743C223.174 124.84 224.141 112.057 221.822 99.6642C222.095 97.6572 222.235 95.6342 222.239 93.6086C222.307 91.4042 222.069 89.2012 221.531 87.0624C219.974 81.1642 215.679 76.4468 211.53 71.9716C210.019 70.2631 208.379 68.6739 206.623 67.218C195.764 54.0657 180.582 45.2007 163.788 42.2062C146.994 39.2116 129.683 42.2825 114.945 50.8704C100.207 59.4583 89.0024 73.004 83.3328 89.0881C77.6632 105.172 77.8976 122.748 83.994 138.675C83.461 142.805 81.8618 146.82 78.9239 149.733C77.5852 151.059 75.8527 152.718 76.1435 154.414C76.0533 154.896 76.1212 155.395 76.3373 155.837C76.6349 156.365 77.0493 156.819 77.5488 157.163C81.7866 160.4 87.0644 161.973 92.3838 161.583C96.8724 174.771 105.672 186.064 117.365 193.642C117.365 194.046 117.351 194.438 117.323 194.817C117.323 195.489 117.268 196.155 117.238 196.834C117.238 196.985 117.238 197.136 117.238 197.288C117.238 197.233 117.238 197.173 117.238 197.112C117.238 197.052 96.1455 224.599 76.6523 225.622C66.2454 226.167 57.1652 233.186 50.2838 241.209C42.0213 250.838 36.9208 261.908 36.4847 264.972C35.679 270.592 30.0576 297.903 30.0576 297.903H192C190.086 307.737 187.505 320.266 187.505 320.266H449.67C449.064 311.843 448.392 304.055 447.768 297.461H480.727L480.691 297.66H632.735L642.379 283.193C639.986 241.04 615.114 217.865 585.359 215.297ZM206.823 168.208C210.243 170.048 213.918 171.371 217.727 172.132C219.38 172.472 221.228 172.684 222.639 171.757C223.575 171.051 224.267 170.071 224.62 168.953L224.693 169.135C228.782 179.43 232.568 190.051 233.301 201.109C233.367 202.15 233.41 203.192 233.416 204.24C233.432 210.547 232.13 216.789 229.593 222.564C215.898 215.364 202.69 207.272 190.056 198.341L189.202 197.978C189.202 198.045 189.498 198.802 189.85 200.079C189.935 200.388 190.025 200.727 190.116 201.091C189.25 198.293 188.463 195.435 187.772 192.522C187.693 192.177 187.615 191.832 187.536 191.486C195.785 185.434 202.41 177.438 206.823 168.208Z" fill="url(#paint0_linear)"/>
<path d="M488.469 49.384C480.237 49.1357 471.126 50.1834 465.523 56.2148C461.234 60.8292 459.865 67.5026 455.94 72.438C450.373 79.4444 440.638 81.8424 434.472 88.328C431.81 91.1941 429.941 94.7039 429.049 98.5117C428.157 102.32 428.272 106.294 429.384 110.044C430.238 112.805 431.631 115.379 432.54 118.122C436.35 129.628 431.376 141.878 428.299 153.584C427.956 154.544 427.895 155.582 428.124 156.575C428.596 158.005 430.104 158.756 431.346 159.603C435.423 162.383 437.507 167.409 437.876 172.32C438.246 177.231 437.137 182.136 436.017 186.939C433.042 199.656 429.287 213.347 418.959 221.359C414.597 224.781 408.77 227.554 407.631 233.004C406.298 239.387 412.392 244.813 418.238 247.701C435.399 256.179 455.322 256.3 474.094 260.079C490.625 263.41 507.114 269.72 523.845 267.564C531.302 266.607 538.432 263.985 545.489 261.387L589.43 245.2C590.671 244.821 591.839 244.233 592.883 243.462C595.53 241.258 595.621 237.067 594.179 233.937C592.738 230.806 590.121 228.408 587.819 225.84C582.803 220.227 578.987 212.3 581.725 205.287C583.542 200.661 587.873 197.324 589.406 192.57C592.253 183.79 584.56 175.566 579.896 167.609C575.581 160.234 573.623 151.717 574.286 143.198C575.019 134.042 578.769 125.286 579.041 116.105C579.296 107.555 576.528 99.2343 573.79 91.1257C571.53 84.4282 569.228 77.6519 565.406 71.6992C558.179 60.4538 545.343 53.3868 532.138 52.212C525.905 51.6609 519.817 53.6835 513.693 52.8963C505.182 51.8487 497.137 49.6444 488.469 49.384Z" fill="#F7D6C8"/>
<path d="M500.759 289.679C500.759 289.679 450.942 258.456 470.314 222.461C474.797 214.141 476.778 206.268 477.183 199.08C477.29 197.186 477.29 195.288 477.183 193.394C477.183 193.303 477.183 193.212 477.183 193.121C477.119 192.144 477.032 191.184 476.923 190.239C474.615 171.236 462.403 158.852 462.403 158.852C462.403 158.852 545.034 134.745 531.199 156.479C524.778 166.567 526.698 176.462 530.999 186.702C531.453 187.78 531.938 188.87 532.441 189.954C537.408 200.752 544.301 211.936 546.227 224.066C550.177 248.967 500.759 289.679 500.759 289.679Z" fill="#EFB7B9"/>
<path opacity="0.1" d="M531.199 156.479C524.778 166.567 526.698 176.462 530.999 186.702C523.027 191.84 513.877 194.863 504.413 195.486C494.949 196.109 485.482 194.312 476.905 190.263C474.615 171.236 462.403 158.852 462.403 158.852C462.403 158.852 545.04 134.739 531.199 156.479Z" fill="black"/>
<path d="M500.753 194.423C531.542 194.423 556.501 169.472 556.501 138.693C556.501 107.914 531.542 82.9627 500.753 82.9627C469.965 82.9627 445.006 107.914 445.006 138.693C445.006 169.472 469.965 194.423 500.753 194.423Z" fill="#EFB7B9"/>
<path opacity="0.1" d="M477.184 193.418C477.184 193.327 477.184 193.236 477.184 193.146L477.25 193.037C477.214 193.17 477.19 193.297 477.184 193.418Z" fill="black"/>
<path opacity="0.1" d="M500.759 289.679C500.759 289.679 450.942 258.456 470.314 222.461C474.797 214.141 476.778 206.268 477.184 199.08C478.316 207.97 484.453 219.022 495.623 234.318C500.469 240.979 502.553 250.293 503.213 259.601L504.321 260.406L509.773 257.112C510.379 246.817 512.463 236.413 517.394 229.038C530.351 209.659 533.428 199.97 532.471 189.93C537.438 200.727 544.331 211.912 546.258 224.042C550.177 248.967 500.759 289.679 500.759 289.679Z" fill="black"/>
<path d="M580.622 214.68C550.94 212.524 532.162 189.488 532.162 189.488C533.743 200.279 531.175 209.938 517.333 230.667C512.433 238.018 510.355 248.404 509.749 258.722L504.297 262.017L503.189 261.211C502.529 251.91 500.451 242.584 495.599 235.929C481.763 216.957 475.609 204.506 477.214 194.623C477.214 194.623 461.991 219.324 432.34 221.304C402.688 223.285 377.779 244.231 375.399 282.57L384.885 295.614H478.456L478.419 295.813H628.041L637.563 281.564C635.183 239.708 610.304 216.835 580.622 214.68Z" fill="#192E4D"/>
<path opacity="0.05" d="M580.622 214.68C550.94 212.524 532.162 189.488 532.162 189.488C533.743 200.279 531.175 209.938 517.333 230.667C512.433 238.018 510.355 248.404 509.749 258.722L504.297 262.017L503.189 261.211C502.529 251.91 500.451 242.584 495.599 235.929C481.763 216.957 475.609 204.506 477.214 194.623C477.214 194.623 461.991 219.324 432.34 221.304C402.688 223.285 377.779 244.231 375.399 282.57L384.885 295.614H478.456L478.419 295.813H628.041L637.563 281.564C635.183 239.708 610.304 216.835 580.622 214.68Z" fill="black"/>
<path opacity="0.1" d="M538.444 111.757C536.021 117.753 531.72 122.815 527.019 127.26C520.525 133.406 512.36 138.82 503.431 138.402C508.299 133.869 511.822 128.082 513.614 121.677C507.98 124.959 503.722 130.155 498.343 133.855C492.964 137.555 485.361 139.462 480.103 135.599C489.653 130.799 497.587 123.306 502.922 114.046C490.153 117.359 483.599 131.735 472.095 138.19C466.704 141.218 460.398 142.357 454.219 142.223C449.828 142.133 444.933 141.109 442.486 137.464C441.056 135.344 440.723 132.68 440.669 130.118C440.402 118.503 445.133 107.107 452.42 98.0655C459.708 89.0244 469.381 82.1512 479.728 76.8162C483.411 74.9147 487.251 73.1828 491.352 72.5772C496.453 71.8384 501.65 72.9224 506.654 74.073C513.159 75.5627 519.702 77.1977 525.692 80.1286C538.48 86.4568 544.065 97.9263 538.444 111.757Z" fill="black"/>
<path d="M538.444 110.964C536.021 116.959 531.72 122.022 527.019 126.467C520.525 132.613 512.36 138.027 503.431 137.609C508.299 133.076 511.822 127.288 513.614 120.883C507.98 124.165 503.722 129.361 498.343 133.061C492.964 136.761 485.361 138.669 480.103 134.805C489.653 130.006 497.587 122.513 502.922 113.253C490.153 116.566 483.599 130.942 472.095 137.397C466.704 140.425 460.398 141.563 454.219 141.43C449.828 141.339 444.933 140.316 442.486 136.67C441.056 134.551 440.723 131.886 440.669 129.325C440.402 117.71 445.133 106.313 452.42 97.2722C459.708 88.2311 469.381 81.3579 479.728 76.0229C483.411 74.1214 487.251 72.3895 491.352 71.7839C496.453 71.0451 501.65 72.1291 506.654 73.2797C513.159 74.7694 519.702 76.4044 525.692 79.3353C538.48 85.6514 544.065 97.133 538.444 110.964Z" fill="#F7D6C8"/>
<path d="M154.056 184.783C193.141 184.783 224.826 153.108 224.826 114.034C224.826 74.9611 193.141 43.2859 154.056 43.2859C114.97 43.2859 83.2853 74.9611 83.2853 114.034C83.2853 153.108 114.97 184.783 154.056 184.783Z" fill="#C3705A"/>
<path d="M217.514 250.196C217.514 250.196 152.699 266.795 151.093 268.363C149.488 269.932 96.5331 272.711 111.95 240.301C117.613 228.402 119.97 212.239 120.685 196.549C120.715 195.883 120.745 195.223 120.769 194.563C121.745 168.263 118.28 143.859 118.28 143.859C118.28 143.859 193.393 114.186 187.863 159.276C186.482 170.491 187.627 181.761 190.134 192.358C190.97 195.895 191.952 199.353 193.042 202.708C201.813 229.74 217.514 250.196 217.514 250.196Z" fill="#ECB4B6"/>
<path opacity="0.1" d="M190.128 192.371C180.166 199.755 168.186 203.922 155.791 204.316C143.395 204.71 131.175 201.311 120.763 194.575C121.739 168.275 118.274 143.871 118.274 143.871C118.274 143.871 193.387 114.198 187.857 159.288C186.482 170.51 187.627 181.779 190.128 192.371Z" fill="black"/>
<path d="M153.856 203.156C187.481 203.156 214.74 175.905 214.74 142.29C214.74 108.675 187.481 81.4246 153.856 81.4246C120.23 81.4246 92.9713 108.675 92.9713 142.29C92.9713 175.905 120.23 203.156 153.856 203.156Z" fill="#ECB4B6"/>
<path opacity="0.1" d="M217.514 250.196C217.514 250.196 152.699 266.795 151.093 268.363C149.488 269.932 96.5331 272.711 111.95 240.301C117.613 228.402 119.97 212.239 120.685 196.549C121.29 204.748 125.979 224.605 126.579 231.212C126.617 231.598 126.694 231.979 126.809 232.35C127.687 235.287 130.819 238.672 134.593 241.882L134.817 242.069C139.511 246.006 145.336 248.347 151.449 248.755C157.563 249.164 163.648 247.617 168.824 244.34C174.212 240.947 179.383 237.222 184.307 233.186C191.358 227.366 193.557 219.524 193.829 212.596C193.942 209.271 193.678 205.943 193.042 202.677C201.813 229.74 217.514 250.196 217.514 250.196Z" fill="black"/>
<path d="M299.358 296.05H34.8369C34.8369 296.05 40.3735 269.175 41.161 263.64C41.5911 260.612 46.6128 249.712 54.7481 240.247C61.5204 232.374 70.4553 225.441 80.6986 224.902C99.8708 223.896 120.63 196.84 120.63 196.84C121.09 204.712 125.949 225.271 126.56 232.017C126.599 232.403 126.676 232.785 126.791 233.155C127.669 236.092 130.801 239.478 134.574 242.687L134.799 242.875C139.492 246.813 145.317 249.156 151.43 249.565C157.544 249.975 163.629 248.429 168.806 245.152C174.192 241.757 179.363 238.032 184.289 233.997C191.34 228.178 193.539 220.336 193.811 213.408C193.95 208.811 193.393 204.219 192.158 199.789C191.812 198.529 191.552 197.79 191.515 197.724L192.357 198.081C192.357 198.081 228.176 224.12 260.99 234.766C264.835 236.018 268.464 237.856 271.748 240.216C274.408 242.139 276.856 244.337 279.053 246.775C283.495 251.796 287.169 257.447 289.957 263.543C297.565 279.663 299.358 296.05 299.358 296.05Z" fill="#192E4D"/>
<path opacity="0.05" d="M299.358 296.05H34.8369C34.8369 296.05 40.3735 269.175 41.161 263.64C41.5911 260.612 46.6128 249.712 54.7481 240.247C61.5204 232.374 70.4553 225.441 80.6986 224.902C99.8708 223.896 120.63 196.84 120.63 196.84C121.09 204.712 125.949 225.271 126.56 232.017C126.599 232.403 126.676 232.785 126.791 233.155C127.669 236.092 130.801 239.478 134.574 242.687L134.799 242.875C139.492 246.813 145.317 249.156 151.43 249.565C157.544 249.975 163.629 248.429 168.806 245.152C174.192 241.757 179.363 238.032 184.289 233.997C191.34 228.178 193.539 220.336 193.811 213.408C193.95 208.811 193.393 204.219 192.158 199.789C191.812 198.529 191.552 197.79 191.515 197.724L192.357 198.081C192.357 198.081 228.176 224.12 260.99 234.766C264.835 236.018 268.464 237.856 271.748 240.216C274.408 242.139 276.856 244.337 279.053 246.775C283.495 251.796 287.169 257.447 289.957 263.543C297.565 279.663 299.358 296.05 299.358 296.05Z" fill="black"/>
<path opacity="0.1" d="M183.126 121.852C184.701 127.908 186.76 134.636 192.17 137.791C192.895 138.138 193.562 138.593 194.151 139.141C195.483 140.588 195.077 142.847 194.877 144.809C194.187 151.543 197.082 158.368 201.832 163.194C206.581 168.021 213.008 170.97 219.641 172.326C221.264 172.659 223.087 172.871 224.487 171.957C225.432 171.238 226.128 170.24 226.474 169.105C228.321 164.193 227.54 158.677 225.995 153.663C224.45 148.649 222.173 143.865 221.004 138.748C218.223 126.606 221.906 114.059 223.566 101.711C224.117 97.6053 224.438 93.3724 223.378 89.3696C221.846 83.5683 217.617 78.9175 213.535 74.515C211.336 72.1473 209.088 69.7371 206.266 68.1868C197.943 63.639 187.227 67.6782 178.34 64.3657C174.785 63.0395 171.762 60.6173 168.376 58.9156C161.185 55.2822 152.662 55.0824 144.781 56.7356C136.901 58.3888 129.516 61.786 122.205 65.153L116.614 67.6842C108.739 71.3176 100.301 75.4234 96.0606 83.0232C91.5477 91.1136 92.8016 101.469 88.2888 109.559C86.9197 111.981 85.0116 114.307 84.6542 117.092C84.4119 119.103 85.0298 121.113 85.6053 123.057C87.0106 127.787 88.2342 132.649 88.1252 137.591C88.0162 142.532 86.4412 147.595 82.9399 151.071C81.4619 152.536 79.4871 154.414 80.3958 156.285C80.6939 156.808 81.1084 157.255 81.6073 157.593C84.4828 159.776 87.863 161.198 91.4348 161.727C95.0065 162.257 98.654 161.876 102.039 160.621C104.693 159.609 107.2 157.986 108.703 155.594C109.701 153.842 110.425 151.947 110.847 149.975C112.761 142.847 114.688 135.599 114.536 128.217C114.451 123.978 113.676 119.702 114.294 115.5C114.912 111.297 117.365 106.967 121.454 105.811C124.483 104.945 127.723 105.992 130.885 105.962C135.441 105.926 141.026 100.875 145.248 102.359C148.882 103.643 151.76 110.595 154.764 113.259C162.385 120.06 173.022 123.614 183.126 121.852Z" fill="black"/>
<path d="M183.126 121.059C184.701 127.115 186.76 133.842 192.17 136.997C192.884 137.338 193.544 137.783 194.126 138.318C195.459 139.765 195.053 142.024 194.853 143.986C194.163 150.72 197.058 157.544 201.807 162.371C206.556 167.197 212.983 170.146 219.616 171.503C221.24 171.836 223.063 172.048 224.463 171.133C225.408 170.415 226.103 169.417 226.449 168.281C228.297 163.37 227.516 157.853 225.971 152.839C224.426 147.825 222.149 143.041 220.979 137.924C218.199 125.782 221.882 113.235 223.542 100.887C224.093 96.7817 224.414 92.5488 223.354 88.546C221.821 82.7447 217.593 78.0939 213.51 73.6915C211.312 71.3237 209.064 68.9135 206.241 67.3633C197.918 62.8155 187.202 66.8546 178.316 63.5422C174.76 62.216 171.738 59.7937 168.351 58.0921C161.161 54.4587 152.638 54.2588 144.757 55.912C136.876 57.5652 129.492 60.9624 122.181 64.3294L116.662 66.8728C108.788 70.5062 100.349 74.6119 96.1091 82.2118C91.5962 90.3022 92.8501 100.657 88.3372 108.748C86.9682 111.17 85.0601 113.495 84.7027 116.281C84.4604 118.291 85.0783 120.302 85.6537 122.246C87.0591 126.975 88.2827 131.838 88.1737 136.779C88.0646 141.721 86.4897 146.783 82.9884 150.259C81.5104 151.725 79.5356 153.602 80.4442 155.473C80.7423 155.996 81.1569 156.444 81.6557 156.781C84.5313 158.964 87.9115 160.386 91.4832 160.916C95.0549 161.445 98.7025 161.064 102.088 159.809C104.741 158.798 107.249 157.175 108.751 154.783C109.75 153.031 110.473 151.135 110.896 149.163C112.81 142.036 114.736 134.787 114.585 127.405C114.5 123.166 113.724 118.891 114.342 114.688C114.96 110.486 117.413 106.156 121.502 104.999C124.531 104.133 127.772 105.181 130.934 105.151C135.489 105.114 141.074 100.064 145.296 101.548C148.931 102.831 151.808 109.783 154.813 112.448C162.385 119.273 173.022 122.827 183.126 121.059Z" fill="#C3705A"/>
<path d="M385.945 146.911H247.166V265.88H385.945V146.911Z" fill="#463A3E"/>
<path opacity="0.05" d="M385.945 146.911H247.166V265.88H385.945V146.911Z" fill="black"/>
<path d="M366.046 318.056H247.318C248.85 309.415 253.333 299.943 262.068 289.734C268.965 281.707 274.606 272.683 278.799 262.968C279.925 260.372 280.935 257.77 281.827 255.162C284.451 247.418 286.236 239.415 287.152 231.29C287.152 231.06 287.207 230.83 287.231 230.6C287.843 224.986 288.09 219.338 287.97 213.693C287.97 213.287 287.97 212.893 287.97 212.481C287.546 198.628 285.253 184.895 281.155 171.654L281.004 171.182C279.713 167.118 278.768 164.835 278.768 164.835C278.768 164.835 281.125 163.558 285.014 161.674L285.341 161.517C299.643 154.65 333.498 140.322 348.424 150.532L348.667 150.695C353.888 154.414 356.699 161.238 355.378 172.605C355.378 172.647 355.378 172.696 355.378 172.738C355.378 172.95 355.33 173.156 355.312 173.344C354.512 181.178 354.134 189.05 354.179 196.924C354.179 197.318 354.179 197.712 354.179 198.136C354.179 199.98 354.199 201.85 354.239 203.743C354.239 203.997 354.239 204.252 354.239 204.506C354.361 210.622 354.633 216.938 355.015 223.345C355.542 232.229 356.293 241.276 357.159 250.154C357.529 253.951 357.928 257.723 358.371 261.435C358.419 261.871 358.468 262.32 358.516 262.75C359.025 267.273 359.552 271.706 360.091 276.005L360.127 276.284C362.187 293.361 364.465 308.27 366.046 318.056Z" fill="#C17174"/>
<path opacity="0.1" d="M355.33 172.629C355.33 172.671 355.33 172.72 355.33 172.762C354.476 180.808 354.072 188.894 354.118 196.985C354.118 197.379 354.118 197.772 354.118 198.196C346.146 207.446 335.448 213.934 323.558 216.727C311.669 219.521 299.199 218.478 287.94 213.747C287.94 213.341 287.94 212.948 287.94 212.536C287.513 198.516 285.169 184.621 280.974 171.236C279.683 167.173 278.738 164.89 278.738 164.89C278.738 164.89 281.095 163.612 284.984 161.729C299.146 154.886 333.705 140.11 348.618 150.72C353.834 154.438 356.644 161.263 355.33 172.629Z" fill="black"/>
<path d="M310.359 217.029C342.248 217.029 368.099 191.186 368.099 159.307C368.099 127.427 342.248 101.584 310.359 101.584C278.469 101.584 252.618 127.427 252.618 159.307C252.618 191.186 278.469 217.029 310.359 217.029Z" fill="#C17174"/>
<path opacity="0.1" d="M313.418 317.662H190.237C190.237 317.662 195.774 290.787 196.562 285.252C196.992 282.225 202.013 271.324 210.149 261.859C220.598 253.526 233.54 248.936 246.906 248.821C270.464 248.47 277.321 256.579 279.18 262.574C279.83 264.584 279.996 266.719 279.665 268.805L284.123 275.261L313.418 317.662Z" fill="black"/>
<path d="M313.024 318.056H189.844C189.844 318.056 195.38 291.181 196.168 285.646C196.598 282.618 201.62 271.718 209.755 262.253C220.204 253.92 233.146 249.33 246.512 249.215C270.07 248.864 276.927 256.972 278.787 262.967C279.436 264.978 279.602 267.113 279.271 269.199L283.73 275.654L313.024 318.056Z" fill="#192E4D"/>
<path opacity="0.1" d="M447.489 317.662H318.427C324.582 304.57 340.713 269.665 341.61 261.593C341.955 258.468 345.286 255.537 349.696 253.048C351.089 252.251 352.523 251.528 353.991 250.88L354.258 250.759C355.065 250.404 355.883 250.075 356.711 249.772C367.875 245.687 380.141 245.783 391.239 250.045C401.834 254.072 415.469 259.498 426.082 264.578L426.167 264.621C428.893 265.929 431.431 267.206 433.666 268.436C438.137 270.888 441.402 273.129 442.655 274.921C443.231 275.745 443.867 279.457 444.564 285.216C445.49 293.004 446.502 304.558 447.489 317.662Z" fill="black"/>
<path d="M447.883 318.056H318.821C324.976 304.964 341.107 270.059 342.003 261.986C342.349 258.862 345.68 255.931 350.09 253.442C351.483 252.645 352.916 251.921 354.385 251.274L354.651 251.153C355.459 250.798 356.277 250.469 357.105 250.166C368.269 246.08 380.535 246.177 391.633 250.438C402.227 254.465 415.863 259.891 426.476 264.972L426.561 265.014C429.287 266.322 431.825 267.6 434.06 268.829C438.53 271.282 441.795 273.523 443.049 275.315C443.625 276.139 444.261 279.851 444.957 285.61C445.89 293.397 446.896 304.958 447.883 318.056Z" fill="#192E4D"/>
<path opacity="0.1" d="M427.112 254.744C427.112 256.605 427.061 258.468 426.96 260.333C426.904 261.242 426.835 262.15 426.755 263.058C426.7 263.712 426.633 264.36 426.567 265.008L426.482 265.759C425.495 274.564 423.671 283.321 423.453 292.168C423.453 292.586 423.453 293.004 423.453 293.421C423.411 301.73 424.756 309.911 426.579 318.056H352.253C352.132 316.548 352.071 315.028 352.089 313.532C352.089 312.182 352.174 310.832 352.313 309.475C353.458 298.327 359.158 287.893 360.018 276.817L360.055 276.308C360.109 275.479 360.14 274.643 360.128 273.807C360.128 273.734 360.128 273.662 360.128 273.583C360.033 269.921 359.469 266.286 358.45 262.768C358.401 262.592 358.353 262.416 358.304 262.241C357.266 258.751 356.052 255.315 354.67 251.946L354.403 251.274C352.386 246.236 350.266 241.24 348.83 236.232C347.689 232.502 347.099 228.626 347.08 224.726C347.08 224.03 347.122 223.333 347.176 222.637C347.225 222.067 347.292 221.498 347.376 220.923C347.509 220.024 347.687 219.133 347.909 218.252C349.121 213.481 351.708 209.005 354.185 204.573C356.941 199.637 359.57 194.756 360.043 189.567C360.102 188.91 360.125 188.251 360.109 187.593C360.09 186.744 360.01 185.898 359.867 185.061C359.231 181.379 357.335 178.067 355.778 174.67C355.621 174.325 355.463 173.979 355.312 173.628C355.312 173.574 355.263 173.519 355.245 173.465C352.216 166.47 350.46 159.01 348.612 151.586C348.533 151.265 348.455 150.944 348.37 150.629C347.915 148.812 347.449 146.995 346.952 145.179C344.239 135.272 340.374 125.262 333.02 118.11C325.666 110.958 313.939 107.337 304.731 111.891C296.766 115.857 292.453 124.735 290.508 133.406C288.564 142.078 288.406 151.131 285.88 159.658C285.698 160.279 285.496 160.899 285.274 161.517C285.165 161.832 285.056 162.122 284.947 162.468C283.863 165.556 282.524 168.614 281.083 171.654L280.931 171.975C276.327 181.767 270.979 191.389 270.809 201.23V201.357C270.809 201.624 270.809 201.884 270.809 202.15C270.84 204.489 271.195 206.812 271.863 209.054C273.074 213.087 275.267 216.605 277.824 219.954C278.328 220.612 278.845 221.264 279.374 221.91C281.918 225.035 284.681 228.063 287.098 231.284L287.176 231.387C289.014 233.767 290.566 236.354 291.798 239.096C293.26 242.531 294.023 246.222 294.044 249.954C294.065 253.686 293.342 257.385 291.919 260.836C291.233 262.431 290.446 263.98 289.563 265.475C288.006 268.163 286.292 270.779 284.941 273.577C284.487 274.516 284.081 275.472 283.73 276.441C280.701 284.241 280.047 292.87 277.575 300.918C275.661 307.097 272.682 312.895 268.774 318.05H190.025C190.94 313.575 195.477 291.405 196.192 286.427C196.622 283.399 201.644 272.499 209.779 263.034C209.095 263.573 208.434 264.118 207.798 264.663C202.668 269.034 198.223 274.149 194.611 279.839C194.787 279.294 194.968 278.743 195.15 278.198C196.259 274.891 197.458 271.615 198.676 268.381C202.201 259.068 206.126 249.566 213.153 242.505C217.121 238.521 221.949 235.451 225.729 231.29C232.392 223.969 235.148 213.826 235.069 203.882C235.069 202.853 235.027 201.829 234.96 200.806C234.239 189.906 230.514 179.472 226.48 169.317C224.311 163.866 222.009 158.138 222.112 152.361C222.119 151.55 222.177 150.741 222.288 149.938C223.954 137.966 236.069 130.796 243.344 121.138C254.163 106.768 254.95 85.4092 269.143 74.3758C280.047 65.8978 295.191 66.4186 308.959 67.3391C321.765 68.199 333.323 69.8643 346.032 71.6447C358.74 73.425 371.637 76.7677 381.832 84.5977C388.416 89.6482 393.553 96.3397 398.114 103.273C404.22 112.563 409.557 122.821 410.29 133.909C410.345 134.702 410.375 135.49 410.375 136.271C410.502 149.23 404.875 161.789 404.13 174.803C404.099 175.409 404.075 176.014 404.069 176.62C404.065 176.652 404.065 176.684 404.069 176.717C403.936 187.998 408.267 199.843 414.161 209.417C422.535 223.061 427.014 238.737 427.112 254.744Z" fill="black"/>
<path d="M427.112 254.744C427.112 256.343 427.051 257.947 426.96 259.54C426.904 260.448 426.835 261.357 426.754 262.265C426.674 263.173 426.583 264.074 426.482 264.966C425.494 273.771 423.671 282.527 423.453 291.375C423.453 292.053 423.453 292.737 423.453 293.415C423.495 301.718 424.901 309.905 426.754 318.05H352.319C352.18 316.542 352.095 315.022 352.083 313.526C352.067 311.909 352.142 310.291 352.307 308.682C353.452 297.533 359.152 287.099 360.012 276.024C360.073 275.212 360.115 274.401 360.121 273.601C360.121 273.414 360.121 273.22 360.121 273.032C360.044 269.112 359.435 265.221 358.31 261.466C357.272 257.976 356.058 254.54 354.676 251.171C352.58 245.909 350.332 240.683 348.83 235.426C347.771 231.941 347.183 228.33 347.079 224.69C347.063 223.728 347.095 222.766 347.176 221.807C347.225 221.238 347.292 220.669 347.376 220.093C347.509 219.195 347.687 218.303 347.909 217.423C349.121 212.651 351.707 208.176 354.185 203.743C356.947 198.802 359.588 193.909 360.055 188.713C360.091 188.319 360.109 187.92 360.121 187.502C360.15 186.388 360.069 185.275 359.879 184.177C359.243 180.495 357.347 177.183 355.79 173.786C355.633 173.44 355.475 173.095 355.324 172.744C352.253 165.707 350.478 158.21 348.624 150.701C348.091 148.558 347.546 146.414 346.97 144.288C344.257 134.381 340.392 124.371 333.038 117.22C325.684 110.068 313.975 106.519 304.774 111.097C296.808 115.064 292.495 123.941 290.55 132.613C288.606 141.285 288.448 150.338 285.922 158.864C285.644 159.803 285.317 160.742 285.008 161.674C283.881 164.866 282.476 168.033 280.998 171.182C276.267 181.228 270.76 191.111 270.875 201.23V201.357C270.907 203.696 271.262 206.019 271.929 208.261C273.141 212.294 275.334 215.812 277.89 219.161C278.395 219.819 278.912 220.471 279.441 221.117C282.015 224.278 284.808 227.336 287.243 230.594C289.081 232.973 290.632 235.561 291.865 238.303C293.326 241.737 294.09 245.428 294.11 249.161C294.131 252.893 293.409 256.592 291.986 260.043C291.3 261.637 290.513 263.187 289.63 264.681C288.073 267.37 286.359 269.986 285.008 272.784C284.553 273.722 284.148 274.679 283.796 275.648C280.767 283.448 280.113 292.077 277.642 300.125C275.626 306.622 272.438 312.695 268.234 318.044H189.844C189.844 318.044 195.38 291.169 196.168 285.634C196.561 282.866 200.808 273.523 207.774 264.663C208.38 263.852 209.07 263.04 209.755 262.241C204.058 266.742 199.121 272.127 195.132 278.191L194.593 279.039C195.853 275.17 197.24 271.349 198.663 267.582C202.189 258.268 206.114 248.767 213.141 241.706C217.109 237.721 221.937 234.651 225.716 230.491C232.186 223.363 234.984 213.535 235.057 203.846C235.057 202.55 235.057 201.26 234.948 199.976C234.227 189.076 230.502 178.642 226.468 168.487C224.402 163.267 222.227 157.829 222.1 152.294C222.072 151.227 222.131 150.16 222.276 149.103C223.948 137.197 236.063 130.058 243.338 120.369C254.157 105.998 254.944 84.6401 269.137 73.6067C280.041 65.1288 295.184 65.6495 308.953 66.57C321.759 67.4299 333.317 69.0952 346.025 70.8756C358.734 72.6559 371.649 75.9926 381.832 83.7984C388.416 88.8791 393.553 95.5403 398.114 102.48C404.22 111.77 409.557 122.028 410.29 133.116C410.363 134.169 410.391 135.221 410.375 136.271C410.272 148.945 404.856 161.263 404.13 174.016C404.081 174.876 404.057 175.73 404.069 176.595C404.065 176.628 404.065 176.66 404.069 176.692C404.142 187.738 408.406 199.256 414.161 208.588C422.681 222.472 427.166 238.455 427.112 254.744Z" fill="#463A3E"/>
</g>
<defs>
<linearGradient id="paint0_linear" x1="336.206" y1="320.254" x2="336.206" y2="41.0877" gradientUnits="userSpaceOnUse">
<stop stop-color="#808080" stop-opacity="0.25"/>
<stop offset="0.54" stop-color="#808080" stop-opacity="0.12"/>
<stop offset="1" stop-color="#808080" stop-opacity="0.1"/>
</linearGradient>
<clipPath id="clip0">
<rect width="673" height="357" fill="white"/>
</clipPath>
</defs>
</svg>
