<svg width="128" height="45" viewBox="0 0 128 45" fill="none" xmlns="http://www.w3.org/2000/svg">
<g clip-path="url(#clip0)">
<path d="M37.5779 19.0399L40.8154 19.5924C40.8154 19.5924 41.7144 13.8914 40.7034 14.4929L37.5779 19.0399ZM102.425 17.2474L103.505 19.7774C103.505 19.7774 106.124 18.7244 105.815 17.3199C105.546 16.0989 104.266 16.5719 102.994 17.0414H102.994C102.803 17.1124 102.612 17.1824 102.425 17.2474ZM103.876 21.7274C103.876 21.7274 104.617 24.8334 104.586 24.6924C104.583 24.6459 104.785 24.5689 105.087 24.4539C106.094 24.0709 108.216 23.2644 107.587 21.7274C106.769 19.7289 103.876 21.7274 103.876 21.7274Z" fill="#8492A6"/>
<path fill-rule="evenodd" clip-rule="evenodd" d="M3.60311 44.6515C3.59211 43.538 3.52261 36.375 5.13911 28.3815C13.0621 27.181 19.5281 28.4535 32.6091 32.0665C35.1801 32.7765 37.6766 33.53 40.1786 34.285C50.9386 37.532 61.7976 40.8085 79.0881 40.8085C98.8446 40.8085 124.008 17.746 127.573 14.3815C127.734 14.23 127.608 13.9795 127.388 13.9825C123.585 14.03 119.782 14.029 115.98 13.9795C115.938 13.9789 115.898 13.9677 115.862 13.9471C115.827 13.9264 115.797 13.897 115.776 13.8616C115.754 13.8262 115.743 13.7859 115.741 13.7447C115.74 13.7035 115.75 13.6626 115.769 13.626L120.996 3.45003C121.089 3.27003 120.8 2.99503 120.628 3.10203C115.426 6.32203 86.4821 22.4295 57.7771 8.66553C31.4941 -3.93697 18.3471 0.40053 14.7031 2.19053C14.8061 1.86703 14.8006 1.51303 14.4236 1.46553C13.9471 1.40503 13.6946 1.69553 13.6946 1.69553C13.2171 2.06453 7.84411 11.9 4.23961 22.528C0.636607 33.1565 -0.0453927 43.6805 0.00360731 44.7755H3.60461C3.60461 44.751 3.60461 44.7095 3.60361 44.6515H3.60311ZM20.3641 8.05803C20.0406 9.88653 19.4201 13.0275 18.1156 17.086C15.4056 23.56 20.0271 22.504 21.3506 19.8145C22.1351 18.3295 22.9416 16.7175 22.9416 16.7175L27.0951 18.31C27.0951 18.31 26.7606 20.2015 26.4186 21.766C25.1136 25.825 28.9176 25.338 29.9696 22.339C30.0581 22.0475 30.2081 21.58 30.3976 20.9905C31.2076 18.468 32.7336 13.714 33.2216 10.954C34.1286 8.77553 31.0241 6.78603 29.6191 10.3065C28.8681 11.603 27.6486 14.4415 27.6486 14.4415C27.6486 14.4415 24.2201 13.1745 24.1796 13.0365C24.1096 12.8555 24.1901 12.5245 24.2856 12.1305C24.3741 11.767 24.4756 11.3495 24.4841 10.9455C24.2751 5.11803 20.7991 5.59903 20.3641 8.05803ZM38.6641 12.596C39.7211 10.4915 40.9351 10.1385 41.8376 10.2345C42.2271 10.267 42.7566 11.0585 43.1616 11.8195C44.4871 16.8295 42.1116 26.0435 41.6916 26.6625C40.2456 28.998 37.7081 28.5565 38.6716 26.033C39.1221 24.5 39.6041 23.107 39.6041 23.107L36.3201 22.74C33.7391 27.754 31.4191 25.6545 32.7561 23.4885C34.1866 20.9515 37.2341 15.397 38.6641 12.596ZM55.3826 17.647C55.8111 16.44 54.9206 13.7095 51.8081 14.165C47.3001 14.1975 45.7401 22.096 45.7401 22.096C45.7401 22.096 44.9911 25.921 46.1736 28.5285C47.1591 30.834 49.4336 31.032 50.1941 31.098C50.2626 31.104 50.3191 31.109 50.3611 31.114C53.3196 30.224 52.3066 28.253 51.8006 28.1895C51.6901 28.184 51.5726 28.1825 51.4501 28.1805C50.8611 28.173 50.1611 28.1635 49.5771 27.6865C48.3806 26.7225 48.5936 24.2745 48.8536 22.958C49.4656 20.7435 50.8126 16.3465 52.9601 17.423C54.2486 19.0695 55.1531 18.313 55.3826 17.647ZM58.3476 17.444C58.0436 18.3715 58.0021 19.318 57.9551 20.3915C57.8796 22.1205 57.7891 24.1795 56.5666 27.022C56.2266 27.832 55.5311 29.128 55.1166 29.9C54.9551 30.201 54.8361 30.4225 54.7976 30.505C53.6996 32.585 55.9291 33.8105 58.3851 30.1765C58.9801 29.3445 59.6356 27.217 59.6356 27.217L60.7041 27.097C60.7041 27.097 61.6376 31.205 61.8521 32.965C62.0821 34.663 65.0901 35.629 65.1341 32.296C65.0266 31.1535 64.6286 29.609 63.8796 27.647C63.8796 27.647 63.3906 26.21 62.9171 26.0235C62.9171 26.0235 66.2736 22.685 66.5936 21.3895C66.9286 20.0325 66.3176 19.0895 63.6926 21.3035C61.0681 23.5175 60.7636 24.2265 60.7636 24.2265C60.7636 24.2265 61.3876 21.435 61.3251 19.3205C61.5531 17.084 59.0331 15.4555 58.3476 17.444ZM75.2531 21.65C74.1266 22.7665 73.4181 24.8625 73.4971 28.0335C73.6541 32.7665 75.6151 35.4865 78.9636 34.9445C82.3121 34.403 81.5236 31.987 81.2151 31.907C81.1711 31.896 81.1336 31.8775 81.0931 31.858C80.9051 31.7675 80.6626 31.6505 79.5331 32.0755C78.1601 32.5915 77.1261 31.989 76.2606 29.888C75.6886 28.4665 75.3786 25.7045 76.4116 24.162C76.6801 23.7645 76.9371 23.618 77.1006 23.5245L77.1381 23.5035L77.1576 23.4915L77.1671 23.486C77.7846 23.1095 78.4171 23.4745 78.5256 23.569C80.2546 24.821 80.5931 23.434 79.9751 22.201C78.7551 20.478 77.1346 20.126 75.2531 21.65ZM82.7386 21.7215C82.7221 19.925 84.5771 18.54 85.2291 22.5575C85.6921 24.05 85.8216 26.3445 85.9211 28.113C85.9946 29.42 86.0521 30.4405 86.2161 30.638C86.6026 31.103 89.4791 30.454 90.2581 30.192C91.0371 29.93 92.4721 30.274 92.1481 31.054C91.9366 31.6945 91.4146 31.869 91.1381 31.961C91.0711 31.9835 91.0186 32.001 90.9881 32.019C90.8336 32.1125 84.3316 34.04 84.0901 32.7565C83.9191 31.849 83.8616 31.2875 83.7566 30.2635H83.7561C83.7126 29.8395 83.6611 29.3365 83.5901 28.697C83.5011 27.9 83.3661 26.995 83.2296 26.08H83.2291C82.9916 24.4865 82.7486 22.863 82.7386 21.7215ZM90.5356 20.1135C90.3946 18.8145 91.7191 18.021 92.4991 19.4155C92.7661 19.9025 93.0526 21.123 93.3751 22.498C93.7691 24.175 94.2161 26.0815 94.7481 27.1665C95.2781 27.966 96.3696 28.11 96.8836 27.3765C97.4906 26.2675 97.0526 23.497 96.6771 21.2745C96.6017 20.9772 96.5218 20.681 96.4376 20.386V20.3855C96.2571 19.7425 96.1101 19.2185 96.1206 18.8015C96.3536 16.8 97.9591 17.274 98.7081 19.326C99.3326 21.612 99.9836 25.3055 99.6571 26.6185L99.6201 26.7685C99.3181 27.992 98.9556 29.4635 97.3991 29.834C96.9781 29.9265 93.4716 30.432 92.2386 26.5955L91.8601 25.3145C90.9686 22.3025 90.6606 21.263 90.5356 20.1135ZM101.532 15.8255C103.688 14.522 105.305 14.0745 106.569 14.531C107.309 14.986 107.787 16.2345 107.588 17.31C107.357 18.245 106.972 19.008 106.972 19.008C108.252 19.137 109.188 20.4135 109.431 22.0845C109.675 23.755 108.101 25.3275 105.174 26.301C104.188 26.579 103.14 26.5755 103.094 26.232C103.062 25.5615 100.577 17.569 100.577 17.569C100.57 17.521 100.56 17.4725 100.551 17.424C100.463 16.978 100.366 16.482 101.532 15.8255Z" fill="#8492A6"/>
</g>
<defs>
<clipPath id="clip0">
<rect width="128" height="45" fill="white"/>
</clipPath>
</defs>
</svg>
