<?xml version="1.0" encoding="UTF-8" standalone="no"?><!-- Generator: Gravit.io --><svg xmlns="http://www.w3.org/2000/svg" xmlns:xlink="http://www.w3.org/1999/xlink" style="isolation:isolate" viewBox="0 0 64 38" width="64pt" height="38pt"><defs><clipPath id="_clipPath_LUijCEJVXlHrSQUoeszg4uboASRMUpns"><rect width="64" height="38"/></clipPath></defs><g clip-path="url(#_clipPath_LUijCEJVXlHrSQUoeszg4uboASRMUpns)"><path d="M 4.56 0 L 59.44 0 C 61.957 0 64 2.043 64 4.56 L 64 33.44 C 64 35.957 61.957 38 59.44 38 L 4.56 38 C 2.043 38 0 35.957 0 33.44 L 0 4.56 C 0 2.043 2.043 0 4.56 0 Z" style="stroke:none;fill:#00AAFC;stroke-miterlimit:10;"/><g><path d=" M 53.889 32.205 C 53.641 32.215 53.432 32.025 53.42 31.777 L 52.815 18.892 C 52.802 18.648 52.992 18.435 53.24 18.426 C 55.832 18.303 58.032 20.304 58.154 22.897 L 58.36 27.29 C 58.482 29.883 56.479 32.083 53.889 32.205 Z " fill="rgb(255,255,255)"/><path d=" M 53.461 18.516 C 53.391 18.516 53.317 18.519 53.243 18.522 C 53.05 18.532 52.902 18.696 52.908 18.889 L 53.516 31.774 C 53.526 31.967 53.69 32.115 53.883 32.109 C 56.417 31.99 58.383 29.828 58.264 27.294 L 58.058 22.9 C 57.942 20.439 55.903 18.516 53.461 18.516 Z  M 53.867 32.302 C 53.58 32.302 53.339 32.073 53.323 31.784 L 52.718 18.898 C 52.702 18.599 52.934 18.342 53.236 18.329 C 55.877 18.204 58.125 20.253 58.248 22.893 L 58.457 27.287 C 58.518 28.564 58.074 29.79 57.212 30.738 C 56.35 31.684 55.173 32.241 53.892 32.298 C 53.886 32.302 53.876 32.302 53.867 32.302 Z " fill="rgb(55,26,69)"/><path d=" M 54.243 31.633 C 54.42 30.841 54.552 30.037 54.632 29.227 C 54.661 28.982 54.69 28.738 54.713 28.493 C 56.018 28.223 57.115 27.419 57.778 26.325 L 57.826 27.316 C 57.926 29.481 56.35 31.34 54.243 31.633 Z " fill="rgb(185,175,190)"/><path d=" M 53.352 18.956 L 53.95 31.665 C 56.202 31.51 57.932 29.577 57.826 27.316 L 57.617 22.922 C 57.511 20.658 55.604 18.895 53.352 18.956 Z  M 53.867 32.739 C 53.346 32.739 52.911 32.327 52.886 31.803 L 52.278 18.918 C 52.252 18.377 52.673 17.914 53.214 17.892 C 56.096 17.753 58.553 19.989 58.688 22.871 L 58.894 27.265 C 59.029 30.147 56.797 32.604 53.915 32.739 C 53.899 32.739 53.883 32.739 53.867 32.739 Z " fill="rgb(20,36,61)"/><path d=" M 10.711 20.429 C 10.958 20.417 11.167 20.606 11.18 20.854 L 11.788 33.74 C 11.798 33.984 11.608 34.196 11.36 34.206 C 8.768 34.328 6.568 32.327 6.449 29.735 L 6.24 25.341 C 6.117 22.749 8.121 20.552 10.711 20.429 Z " fill="rgb(255,255,255)"/><path d=" M 10.717 20.523 C 8.182 20.642 6.217 22.803 6.336 25.338 L 6.542 29.732 C 6.664 32.266 8.819 34.228 11.357 34.109 C 11.55 34.103 11.701 33.936 11.692 33.743 L 11.084 20.857 C 11.074 20.664 10.907 20.513 10.717 20.523 Z  M 11.138 34.309 C 8.597 34.309 6.471 32.305 6.352 29.738 L 6.143 25.344 C 6.085 24.067 6.526 22.842 7.388 21.893 C 8.25 20.947 9.427 20.391 10.707 20.333 C 11.01 20.317 11.264 20.552 11.277 20.851 L 11.881 33.733 C 11.898 34.032 11.666 34.289 11.367 34.302 C 11.29 34.306 11.212 34.309 11.138 34.309 Z " fill="rgb(55,26,69)"/><path d=" M 11.023 33.675 C 8.868 33.614 7.086 31.896 6.983 29.709 L 6.938 28.757 C 7.726 29.699 8.877 30.327 10.164 30.43 C 10.37 31.542 10.659 32.627 11.023 33.675 Z " fill="rgb(185,175,190)"/><path d=" M 10.65 20.967 C 8.398 21.121 6.668 23.054 6.777 25.315 L 6.983 29.709 C 7.089 31.974 8.993 33.733 11.248 33.675 L 10.65 20.967 Z  M 11.139 34.746 C 8.363 34.746 6.044 32.559 5.912 29.76 L 5.706 25.367 C 5.571 22.485 7.803 20.027 10.688 19.892 C 11.229 19.87 11.689 20.288 11.714 20.828 L 12.322 33.714 C 12.348 34.254 11.927 34.717 11.386 34.743 C 11.303 34.746 11.219 34.746 11.139 34.746 Z " fill="rgb(20,36,61)"/><path d=" M 54.275 26.843 C 53.986 38.976 43.911 48.58 31.776 48.291 C 19.64 47.998 10.038 37.924 10.328 25.791 C 10.621 13.655 20.692 4.051 32.828 4.34 C 44.963 4.633 54.568 14.707 54.275 26.843 Z " fill="rgb(255,255,255)"/><path d=" M 32.29 4.431 C 26.642 4.431 21.306 6.566 17.205 10.474 C 12.972 14.508 10.566 19.947 10.425 25.791 C 10.138 37.856 19.717 47.905 31.779 48.195 C 43.841 48.481 53.892 38.902 54.182 26.84 L 54.275 26.843 L 54.182 26.84 C 54.32 20.996 52.175 15.447 48.142 11.217 C 44.111 6.984 38.669 4.578 32.828 4.437 C 32.648 4.434 32.467 4.431 32.29 4.431 Z  M 32.31 48.391 C 32.133 48.391 31.956 48.391 31.776 48.384 C 19.605 48.095 9.942 37.956 10.232 25.788 C 10.373 19.892 12.802 14.405 17.07 10.336 C 21.338 6.267 26.935 4.106 32.831 4.247 C 38.727 4.385 44.214 6.814 48.283 11.082 C 52.352 15.351 54.513 20.947 54.372 26.843 C 54.086 38.834 44.24 48.391 32.31 48.391 Z " fill="rgb(55,26,69)"/><path d=" M 54.275 26.843 L 54.279 26.843 L 54.275 26.843 Z  M 32.29 4.871 C 26.758 4.871 21.525 6.962 17.507 10.793 C 13.361 14.746 11 20.076 10.865 25.804 C 10.582 37.625 19.968 47.471 31.789 47.754 C 43.609 48.037 53.458 38.651 53.741 26.83 C 54.024 15.006 44.639 5.161 32.815 4.878 C 32.641 4.874 32.464 4.871 32.29 4.871 Z  M 32.31 48.831 C 32.13 48.831 31.946 48.828 31.763 48.825 C 19.354 48.529 9.498 38.188 9.794 25.779 C 10.09 13.366 20.425 3.511 32.84 3.806 C 38.855 3.951 44.452 6.428 48.601 10.78 C 52.751 15.132 54.957 20.841 54.813 26.856 C 54.52 39.082 44.478 48.831 32.31 48.831 Z " fill="rgb(20,36,61)"/><path d=" M 54.192 27.403 C 54.156 31.707 52.725 35.685 50.306 38.969 C 48.495 41.43 41.097 45.698 32.011 45.702 C 23.583 45.702 15.957 41.144 14.188 38.651 C 11.83 35.325 10.469 31.32 10.508 27.02 C 10.608 15.637 20.428 11.005 32.493 11.111 C 44.555 11.217 54.295 16.023 54.192 27.403 Z " fill="rgb(25,46,77)"/><path d=" M 54.192 27.403 L 54.195 27.403 L 54.192 27.403 Z  M 32.088 11.645 C 26.021 11.645 20.917 12.874 17.305 15.206 C 13.197 17.859 11.09 21.835 11.042 27.023 C 11.007 31.073 12.245 34.987 14.625 38.339 C 16.317 40.722 23.776 45.165 32.007 45.165 L 32.011 45.165 C 41.133 45.165 48.257 40.851 49.875 38.651 C 52.313 35.338 53.622 31.449 53.658 27.4 C 53.78 13.353 38.894 11.703 32.486 11.648 C 32.355 11.645 32.22 11.645 32.088 11.645 Z  M 32.007 46.235 C 23.29 46.235 15.606 41.572 13.753 38.96 C 11.241 35.422 9.935 31.288 9.971 27.014 C 10.022 21.443 12.293 17.168 16.722 14.308 C 20.592 11.809 26.047 10.516 32.496 10.577 C 38.948 10.632 44.378 12.018 48.202 14.585 C 52.583 17.525 54.777 21.838 54.729 27.409 C 54.69 31.684 53.31 35.792 50.737 39.285 C 48.955 41.71 41.631 46.235 32.011 46.235 L 32.007 46.235 Z " fill="rgb(20,36,61)"/><path d=" M 46.768 29.655 C 46.639 29.655 46.511 29.642 46.379 29.616 C 44.851 29.326 43.937 27.38 44.34 25.267 C 44.706 23.337 46.047 21.938 47.447 21.938 C 47.575 21.938 47.707 21.951 47.836 21.973 C 49.071 22.208 49.904 23.527 49.968 25.135 C 49.795 26.087 49.566 27.02 49.286 27.93 C 48.675 28.982 47.736 29.655 46.768 29.655 Z " fill="rgb(195,186,199)"/><path d=" M 43.442 35.232 C 43.301 35.232 43.156 35.209 43.014 35.161 C 42.213 34.891 41.818 33.913 42.136 32.977 C 42.397 32.208 43.059 31.71 43.732 31.71 C 43.876 31.71 44.018 31.732 44.159 31.777 C 44.96 32.051 45.356 33.028 45.037 33.961 C 44.777 34.73 44.114 35.232 43.442 35.232 Z " fill="rgb(195,186,199)"/><path d=" M 46.546 41.321 L 36.501 41.321 C 40.991 39.52 44.217 37.21 45.44 35.55 C 47.131 33.254 48.444 30.687 49.286 27.93 C 49.557 27.461 49.763 26.917 49.875 26.322 C 49.952 25.917 49.981 25.518 49.968 25.135 C 50.222 23.749 50.358 22.327 50.37 20.873 C 50.383 19.738 50.312 18.654 50.174 17.621 C 52.303 19.912 53.696 23.064 53.658 27.4 C 53.622 31.449 52.313 35.338 49.875 38.651 C 49.335 39.384 48.183 40.356 46.546 41.321 Z " fill="rgb(20,36,61)"/><path d=" M 47.569 41.321 L 46.546 41.321 C 48.183 40.356 49.335 39.384 49.875 38.651 C 52.313 35.338 53.622 31.449 53.658 27.4 C 53.696 23.064 52.303 19.912 50.174 17.621 C 50.135 17.326 50.09 17.036 50.039 16.75 C 52.686 19.32 54.233 22.832 54.192 27.403 C 54.156 31.707 52.722 35.685 50.306 38.969 C 49.801 39.655 48.862 40.485 47.569 41.321 Z " fill="rgb(15,27,46)"/><path d=" M 49.286 27.93 C 49.566 27.02 49.795 26.087 49.968 25.135 C 49.981 25.518 49.952 25.917 49.875 26.322 C 49.762 26.917 49.556 27.461 49.286 27.93 Z " fill="rgb(133,130,144)"/><path d=" M 52.4 17.943 C 52.281 17.943 52.162 17.901 52.062 17.821 L 52.004 17.773 L 51.959 17.711 C 48.299 12.481 41.165 9.435 32.387 9.358 C 23.564 9.278 16.375 12.295 12.683 17.631 L 12.654 17.666 C 12.467 17.895 12.129 17.927 11.901 17.74 C 11.679 17.557 11.64 17.235 11.811 17.007 C 15.712 11.385 23.22 8.203 32.393 8.287 C 41.519 8.368 48.965 11.574 52.831 17.087 C 52.973 17.28 52.973 17.554 52.815 17.747 C 52.709 17.876 52.554 17.943 52.4 17.943 Z " fill="rgb(20,36,61)"/><path d=" M 15.352 33.833 C 15.352 33.833 11.927 22.575 18.019 18.152 C 22.441 14.942 28.244 14.112 31.01 14.112 C 32.052 14.112 32.663 14.231 32.606 14.382 C 32.606 14.382 22.946 16.631 19.109 24.219 C 16.15 30.066 15.352 33.833 15.352 33.833 Z " fill="rgb(195,186,199)"/></g></g></svg>