<?xml version="1.0" encoding="UTF-8"?>
<svg viewBox="0 0 673 357" xmlns="http://www.w3.org/2000/svg">
<g clip-path="url(#b)">
<path d="m28.537 48.833c1.0903 6.9155 3.8768 13.595 3.901 20.589 0.0909 22.854-27.647 36.891-31.893 59.345-2.5199 13.323 4.0101 26.936 13.218 36.873 9.2075 9.938 20.947 17.101 31.76 25.277 29.917 22.66 52.977 53.156 66.628 88.11 2.732 7.024 5.082 14.267 5.857 21.764 0.564 5.45 0.297 11.027 1.575 16.35 5.058 21.128 30.706 29.328 52.392 30.696 34.927 2.168 69.888-3.669 102.22-17.065 7.269-3.028 14.774-6.467 22.577-5.613 6.239 0.684 11.806 4.057 17.282 7.127 16.126 9.048 33.289 16.112 51.113 21.038 9.874 2.725 20.239 4.796 30.324 3.027 30.288-5.341 46.383-42.062 76.101-50.092 20.56-5.553 41.955 4.148 60.394 14.8s37.472 22.921 58.759 22.951c28.397 0.036 51.743-21.449 71.006-42.305 4.041-4.378 8.148-8.956 10.074-14.594 3.907-11.445-2.423-24.301-11.782-31.992s-21.159-11.506-32.432-15.902c-19.108-7.453-37.342-16.972-54.379-28.389-11.025-7.388-21.704-15.745-29.246-26.645-6.487-9.399-10.382-20.293-14.732-30.854-9.534-23.127-23.018-46.629-45.534-57.48-18.385-8.8655-39.738-7.8724-60.146-8.1086-30.069-0.333-60.902-3.9482-87.562-17.852-22.516-11.742-41.009-30.278-63.858-41.378-36.346-17.64-77.894-14.182-117.06-13.516-18.821 0.3209-41.192 2.1982-59.268-3.9665-13.369-4.5599-20.25-13.88-35.606-10.125-21.002 5.117-35.037 26.596-31.681 47.931z" fill="#192E4D" opacity=".1"/>
<path d="m585.36 215.3c-0.95-3.147-0.851-6.518 0.285-9.604 1.817-4.699 6.245-8.09 7.802-12.893 2.896-8.92-4.906-17.27-9.692-25.355-4.39-7.5-6.379-16.164-5.7-24.828 0.745-9.301 4.555-18.197 4.846-27.523 0.26-8.69-2.556-17.144-5.337-25.379-2.295-6.8066-4.634-13.692-8.517-19.736-7.341-11.427-20.383-18.609-33.795-19.796-6.33-0.5631-12.521 1.4958-18.742 0.6904-8.638-1.1143-16.803-3.3549-25.611-3.6334-8.366-0.2483-17.615 0.8114-23.316 6.9398-4.355 4.6931-5.748 11.469-9.734 16.484-5.658 7.1154-15.55 9.5559-21.807 16.144-2.704 2.9119-4.602 6.4776-5.508 10.346-0.906 3.8681-0.789 7.9061 0.341 11.715 0.866 2.81 2.283 5.42 3.204 8.211 3.871 11.664-1.211 24.138-4.283 36.032-0.346 0.971-0.409 2.021-0.181 3.027 0.484 1.454 2.011 2.217 3.277 3.077 4.143 2.822 6.257 7.933 6.663 12.929 0.406 4.995-0.751 9.973-1.89 14.854-2.901 12.408-6.53 25.7-16.095 33.954-1.737-4.14-3.79-8.141-6.142-11.966-5.852-9.483-10.183-21.195-10.256-32.404-4e-3 -0.034-4e-3 -0.068 0-0.103 0-0.605 0.031-1.211 0.067-1.816 0.757-13.226 6.476-25.985 6.348-39.15 0-1.066-0.03-2.134-0.09-3.204-0.746-11.269-6.161-21.691-12.37-31.126-4.634-7.0425-9.856-13.843-16.543-18.972-10.34-7.8663-23.479-11.282-36.388-13.086s-24.654-3.5002-37.666-4.3722c-13.993-0.9386-29.391-1.4655-40.452 7.1457-14.423 11.227-15.223 32.913-26.217 47.507-6.542 8.684-16.961 15.393-20.408 25.258-0.932-2.421-1.709-4.899-2.326-7.418-0.036-0.17-0.073-0.333-0.109-0.503 4.157-11.903 5.124-24.686 2.805-37.079 0.273-2.007 0.413-4.03 0.417-6.0556 0.068-2.2044-0.17-4.4074-0.708-6.5462-1.557-5.8982-5.852-10.616-10.001-15.091-1.511-1.7085-3.151-3.2977-4.907-4.7536-10.859-13.152-26.041-22.017-42.835-25.012-16.794-2.9946-34.105 0.0763-48.843 8.6642s-25.943 22.134-31.612 38.218c-5.6696 16.084-5.4352 33.66 0.6612 49.587-0.533 4.13-2.1322 8.145-5.0701 11.058-1.3387 1.326-3.0712 2.985-2.7804 4.681-0.0902 0.482-0.0223 0.981 0.1938 1.423 0.2976 0.528 0.712 0.982 1.2115 1.326 4.2378 3.237 9.5156 4.81 14.835 4.42 4.4886 13.188 13.288 24.481 24.981 32.059 0 0.404-0.014 0.796-0.042 1.175 0 0.672-0.055 1.338-0.085 2.017v0.454-0.176c0-0.06-21.092 27.487-40.586 28.51-10.407 0.545-19.487 7.564-26.368 15.587-8.2625 9.629-13.363 20.699-13.799 23.763-0.8057 5.62-6.4271 32.931-6.4271 32.931h161.94c-1.914 9.834-4.495 22.363-4.495 22.363h262.16c-0.606-8.423-1.278-16.211-1.902-22.805h32.959l-0.036 0.199h152.04l9.644-14.467c-2.393-42.153-27.265-65.328-57.02-67.896zm-378.54-47.089c3.42 1.84 7.095 3.163 10.904 3.924 1.653 0.34 3.501 0.552 4.912-0.375 0.936-0.706 1.628-1.686 1.981-2.804l0.073 0.182c4.089 10.295 7.875 20.916 8.608 31.974 0.066 1.041 0.109 2.083 0.115 3.131 0.016 6.307-1.286 12.549-3.823 18.324-13.695-7.2-26.903-15.292-39.537-24.223l-0.854-0.363c0 0.067 0.296 0.824 0.648 2.101 0.085 0.309 0.175 0.648 0.266 1.012-0.866-2.798-1.653-5.656-2.344-8.569-0.079-0.345-0.157-0.69-0.236-1.036 8.249-6.052 14.874-14.048 19.287-23.278z" fill="url(#a)"/>
<path d="m488.47 49.384c-8.232-0.2483-17.343 0.7994-22.946 6.8308-4.289 4.6144-5.658 11.288-9.583 16.223-5.567 7.0064-15.302 9.4044-21.468 15.89-2.662 2.8661-4.531 6.3759-5.423 10.184-0.892 3.8083-0.777 7.7823 0.335 11.532 0.854 2.761 2.247 5.335 3.156 8.078 3.81 11.506-1.164 23.756-4.241 35.462-0.343 0.96-0.404 1.998-0.175 2.991 0.472 1.43 1.98 2.181 3.222 3.028 4.077 2.78 6.161 7.806 6.53 12.717 0.37 4.911-0.739 9.816-1.859 14.619-2.975 12.717-6.73 26.408-17.058 34.42-4.362 3.422-10.189 6.195-11.328 11.645-1.333 6.383 4.761 11.809 10.607 14.697 17.161 8.478 37.084 8.599 55.856 12.378 16.531 3.331 33.02 9.641 49.751 7.485 7.457-0.957 14.587-3.579 21.644-6.177l43.941-16.187c1.241-0.379 2.409-0.967 3.453-1.738 2.647-2.204 2.738-6.395 1.296-9.525-1.441-3.131-4.058-5.529-6.36-8.097-5.016-5.613-8.832-13.54-6.094-20.553 1.817-4.626 6.148-7.963 7.681-12.717 2.847-8.78-4.846-17.004-9.51-24.961-4.315-7.375-6.273-15.892-5.61-24.411 0.733-9.156 4.483-17.912 4.755-27.093 0.255-8.55-2.513-16.871-5.251-24.979-2.26-6.6975-4.562-13.474-8.384-19.426-7.227-11.245-20.063-18.312-33.268-19.487-6.233-0.5511-12.321 1.4715-18.445 0.6843-8.511-1.0476-16.556-3.2519-25.224-3.5123z" fill="#F7D6C8"/>
<path d="m500.76 289.68s-49.817-31.223-30.445-67.218c4.483-8.32 6.464-16.193 6.869-23.381 0.107-1.894 0.107-3.792 0-5.686v-0.273c-0.064-0.977-0.151-1.937-0.26-2.882-2.308-19.003-14.52-31.387-14.52-31.387s82.631-24.107 68.796-2.373c-6.421 10.088-4.501 19.983-0.2 30.223 0.454 1.078 0.939 2.168 1.442 3.252 4.967 10.798 11.86 21.982 13.786 34.112 3.95 24.901-45.468 65.613-45.468 65.613z" fill="#EFB7B9"/>
<path d="m531.2 156.48c-6.421 10.088-4.501 19.983-0.2 30.223-7.972 5.138-17.122 8.161-26.586 8.784s-18.931-1.174-27.508-5.223c-2.29-19.027-14.502-31.411-14.502-31.411s82.637-24.113 68.796-2.373z" opacity=".1"/>
<path d="m500.75 194.42c30.789 0 55.748-24.951 55.748-55.73s-24.959-55.73-55.748-55.73c-30.788 0-55.747 24.951-55.747 55.73s24.959 55.73 55.747 55.73z" fill="#EFB7B9"/>
<path d="m477.18 193.42v-0.272l0.066-0.109c-0.036 0.133-0.06 0.26-0.066 0.381z" opacity=".1"/>
<path d="m500.76 289.68s-49.817-31.223-30.445-67.218c4.483-8.32 6.464-16.193 6.87-23.381 1.132 8.89 7.269 19.942 18.439 35.238 4.846 6.661 6.93 15.975 7.59 25.283l1.108 0.805 5.452-3.294c0.606-10.295 2.69-20.699 7.621-28.074 12.957-19.379 16.034-29.068 15.077-39.108 4.967 10.797 11.86 21.982 13.787 34.112 3.919 24.925-45.499 65.637-45.499 65.637z" opacity=".1"/>
<path d="m580.62 214.68c-29.682-2.156-48.46-25.192-48.46-25.192 1.581 10.791-0.987 20.45-14.829 41.179-4.9 7.351-6.978 17.737-7.584 28.055l-5.452 3.295-1.108-0.806c-0.66-9.301-2.738-18.627-7.59-25.282-13.836-18.972-19.99-31.423-18.385-41.306 0 0-15.223 24.701-44.874 26.681-29.652 1.981-54.561 22.927-56.941 61.266l9.486 13.044h93.571l-0.037 0.199h149.62l9.522-14.249c-2.38-41.856-27.259-64.729-56.941-66.884z" fill="#192E4D"/>
<path d="m580.62 214.68c-29.682-2.156-48.46-25.192-48.46-25.192 1.581 10.791-0.987 20.45-14.829 41.179-4.9 7.351-6.978 17.737-7.584 28.055l-5.452 3.295-1.108-0.806c-0.66-9.301-2.738-18.627-7.59-25.282-13.836-18.972-19.99-31.423-18.385-41.306 0 0-15.223 24.701-44.874 26.681-29.652 1.981-54.561 22.927-56.941 61.266l9.486 13.044h93.571l-0.037 0.199h149.62l9.522-14.249c-2.38-41.856-27.259-64.729-56.941-66.884z" opacity=".05"/>
<path d="m538.44 111.76c-2.423 5.996-6.724 11.058-11.425 15.503-6.494 6.146-14.659 11.56-23.588 11.142 4.868-4.533 8.391-10.32 10.183-16.725-5.634 3.282-9.892 8.478-15.271 12.178s-12.982 5.607-18.24 1.744c9.55-4.8 17.484-12.293 22.819-21.553-12.769 3.313-19.323 17.689-30.827 24.144-5.391 3.028-11.697 4.167-17.876 4.033-4.391-0.09-9.286-1.114-11.733-4.759-1.43-2.12-1.763-4.784-1.817-7.346-0.267-11.615 4.464-23.011 11.751-32.052 7.288-9.0411 16.961-15.914 27.308-21.249 3.683-1.9015 7.523-3.6334 11.624-4.239 5.101-0.7388 10.298 0.3452 15.302 1.4958 6.505 1.4897 13.048 3.1247 19.038 6.0556 12.788 6.3282 18.373 17.798 12.752 31.628z" opacity=".1"/>
<path d="m538.44 110.96c-2.423 5.995-6.724 11.058-11.425 15.503-6.494 6.146-14.659 11.56-23.588 11.142 4.868-4.533 8.391-10.321 10.183-16.726-5.634 3.282-9.892 8.478-15.271 12.178s-12.982 5.608-18.24 1.744c9.55-4.799 17.484-12.292 22.819-21.552-12.769 3.313-19.323 17.689-30.827 24.144-5.391 3.028-11.697 4.166-17.876 4.033-4.391-0.091-9.286-1.114-11.733-4.76-1.43-2.119-1.763-4.784-1.817-7.345-0.267-11.615 4.464-23.012 11.751-32.053 7.288-9.0411 16.961-15.914 27.308-21.249 3.683-1.9015 7.523-3.6334 11.624-4.239 5.101-0.7388 10.298 0.3452 15.302 1.4958 6.505 1.4897 13.048 3.1247 19.038 6.0556 12.788 6.3161 18.373 17.798 12.752 31.629z" fill="#F7D6C8"/>
<path d="m154.06 184.78c39.085 0 70.77-31.675 70.77-70.749 0-39.073-31.685-70.748-70.77-70.748-39.086 0-70.771 31.675-70.771 70.748 0 39.074 31.685 70.749 70.771 70.749z" fill="#C3705A"/>
<path d="m217.51 250.2s-64.815 16.599-66.421 18.167c-1.605 1.569-54.56 4.348-39.143-28.062 5.663-11.899 8.02-28.062 8.735-43.752 0.03-0.666 0.06-1.326 0.084-1.986 0.976-26.3-2.489-50.704-2.489-50.704s75.113-29.673 69.583 15.417c-1.381 11.215-0.236 22.485 2.271 33.082 0.836 3.537 1.818 6.995 2.908 10.35 8.771 27.032 24.472 47.488 24.472 47.488z" fill="#ECB4B6"/>
<path d="m190.13 192.37c-9.962 7.384-21.942 11.551-34.337 11.945-12.396 0.394-24.616-3.005-35.028-9.741 0.976-26.3-2.489-50.704-2.489-50.704s75.113-29.673 69.583 15.417c-1.375 11.222-0.23 22.491 2.271 33.083z" opacity=".1"/>
<path d="m153.86 203.16c33.625 0 60.884-27.251 60.884-60.866s-27.259-60.865-60.884-60.865c-33.626 0-60.885 27.25-60.885 60.865s27.259 60.866 60.885 60.866z" fill="#ECB4B6"/>
<path d="m217.51 250.2s-64.815 16.599-66.421 18.167c-1.605 1.569-54.56 4.348-39.143-28.062 5.663-11.899 8.02-28.062 8.735-43.752 0.605 8.199 5.294 28.056 5.894 34.663 0.038 0.386 0.115 0.767 0.23 1.138 0.878 2.937 4.01 6.322 7.784 9.532l0.224 0.187c4.694 3.937 10.519 6.278 16.632 6.686 6.114 0.409 12.199-1.138 17.375-4.415 5.388-3.393 10.559-7.118 15.483-11.154 7.051-5.82 9.25-13.662 9.522-20.59 0.113-3.325-0.151-6.653-0.787-9.919 8.771 27.063 24.472 47.519 24.472 47.519z" opacity=".1"/>
<path d="m299.36 296.05h-264.52s5.5366-26.875 6.3241-32.41c0.4301-3.028 5.4518-13.928 13.587-23.393 6.7723-7.873 15.707-14.806 25.95-15.345 19.172-1.006 39.931-28.062 39.931-28.062 0.46 7.872 5.319 28.431 5.93 35.177 0.039 0.386 0.116 0.768 0.231 1.138 0.878 2.937 4.01 6.323 7.783 9.532l0.225 0.188c4.693 3.938 10.518 6.281 16.631 6.69 6.114 0.41 12.199-1.136 17.376-4.413 5.386-3.395 10.557-7.12 15.483-11.155 7.051-5.819 9.25-13.661 9.522-20.589 0.139-4.597-0.418-9.189-1.653-13.619-0.346-1.26-0.606-1.999-0.643-2.065l0.842 0.357s35.819 26.039 68.633 36.685c3.845 1.252 7.474 3.09 10.758 5.45 2.66 1.923 5.108 4.121 7.305 6.559 4.442 5.021 8.116 10.672 10.904 16.768 7.608 16.12 9.401 32.507 9.401 32.507z" fill="#192E4D"/>
<path d="m299.36 296.05h-264.52s5.5366-26.875 6.3241-32.41c0.4301-3.028 5.4518-13.928 13.587-23.393 6.7723-7.873 15.707-14.806 25.95-15.345 19.172-1.006 39.931-28.062 39.931-28.062 0.46 7.872 5.319 28.431 5.93 35.177 0.039 0.386 0.116 0.768 0.231 1.138 0.878 2.937 4.01 6.323 7.783 9.532l0.225 0.188c4.693 3.938 10.518 6.281 16.631 6.69 6.114 0.41 12.199-1.136 17.376-4.413 5.386-3.395 10.557-7.12 15.483-11.155 7.051-5.819 9.25-13.661 9.522-20.589 0.139-4.597-0.418-9.189-1.653-13.619-0.346-1.26-0.606-1.999-0.643-2.065l0.842 0.357s35.819 26.039 68.633 36.685c3.845 1.252 7.474 3.09 10.758 5.45 2.66 1.923 5.108 4.121 7.305 6.559 4.442 5.021 8.116 10.672 10.904 16.768 7.608 16.12 9.401 32.507 9.401 32.507z" opacity=".05"/>
<path d="m183.13 121.85c1.575 6.056 3.634 12.784 9.044 15.939 0.725 0.347 1.392 0.802 1.981 1.35 1.332 1.447 0.926 3.706 0.726 5.668-0.69 6.734 2.205 13.559 6.955 18.385 4.749 4.827 11.176 7.776 17.809 9.132 1.623 0.333 3.446 0.545 4.846-0.369 0.945-0.719 1.641-1.717 1.987-2.852 1.847-4.912 1.066-10.428-0.479-15.442s-3.822-9.798-4.991-14.915c-2.781-12.142 0.902-24.689 2.562-37.037 0.551-4.1057 0.872-8.3386-0.188-12.341-1.532-5.8013-5.761-10.452-9.843-14.855-2.199-2.3677-4.447-4.7779-7.269-6.3282-8.323-4.5478-19.039-0.5086-27.926-3.8211-3.555-1.3262-6.578-3.7484-9.964-5.4501-7.191-3.6334-15.714-3.8332-23.595-2.18-7.88 1.6532-15.265 5.0504-22.576 8.4174l-5.591 2.5312c-7.875 3.6334-16.313 7.7392-20.553 15.339-4.5129 8.0904-3.259 18.446-7.7718 26.536-1.3691 2.422-3.2772 4.748-3.6346 7.533-0.2423 2.011 0.3756 4.021 0.9511 5.965 1.4053 4.73 2.6289 9.592 2.5199 14.534-0.109 4.941-1.684 10.004-5.1853 13.48-1.478 1.465-3.4528 3.343-2.5441 5.214 0.2981 0.523 0.7126 0.97 1.2115 1.308 2.8755 2.183 6.2557 3.605 9.8275 4.134 3.5717 0.53 7.2192 0.149 10.604-1.106 2.654-1.012 5.161-2.635 6.664-5.027 0.998-1.752 1.722-3.647 2.144-5.619 1.914-7.128 3.841-14.376 3.689-21.758-0.085-4.239-0.86-8.515-0.242-12.717 0.618-4.203 3.071-8.533 7.16-9.689 3.029-0.866 6.269 0.181 9.431 0.151 4.556-0.036 10.141-5.087 14.363-3.603 3.634 1.284 6.512 8.236 9.516 10.9 7.621 6.801 18.258 10.355 28.362 8.593z" opacity=".1"/>
<path d="m183.13 121.06c1.575 6.056 3.634 12.783 9.044 15.938 0.714 0.341 1.374 0.786 1.956 1.321 1.333 1.447 0.927 3.706 0.727 5.668-0.69 6.734 2.205 13.558 6.954 18.385 4.749 4.826 11.176 7.775 17.809 9.132 1.624 0.333 3.447 0.545 4.847-0.37 0.945-0.718 1.64-1.716 1.986-2.852 1.848-4.911 1.067-10.428-0.478-15.442s-3.822-9.798-4.992-14.915c-2.78-12.142 0.903-24.689 2.563-37.037 0.551-4.1053 0.872-8.3382-0.188-12.341-1.533-5.8013-5.761-10.452-9.844-14.854-2.198-2.3678-4.446-4.778-7.269-6.3282-8.323-4.5478-19.039-0.5087-27.925-3.8211-3.556-1.3262-6.578-3.7485-9.965-5.4501-7.19-3.6334-15.713-3.8333-23.594-2.1801s-15.265 5.0504-22.576 8.4174l-5.519 2.5434c-7.874 3.6334-16.313 7.7391-20.553 15.339-4.5129 8.0904-3.259 18.445-7.7719 26.536-1.369 2.422-3.2771 4.747-3.6345 7.533-0.2423 2.01 0.3756 4.021 0.951 5.965 1.4054 4.729 2.629 9.592 2.52 14.533-0.1091 4.942-1.684 10.004-5.1853 13.48-1.478 1.466-3.4528 3.343-2.5442 5.214 0.2981 0.523 0.7127 0.971 1.2115 1.308 2.8756 2.183 6.2558 3.605 9.8275 4.135 3.5717 0.529 7.2193 0.148 10.605-1.107 2.653-1.011 5.161-2.634 6.663-5.026 0.999-1.752 1.722-3.648 2.145-5.62 1.914-7.127 3.84-14.376 3.689-21.758-0.085-4.239-0.861-8.514-0.243-12.717 0.618-4.202 3.071-8.532 7.16-9.689 3.029-0.866 6.27 0.182 9.432 0.152 4.555-0.037 10.14-5.087 14.362-3.603 3.635 1.283 6.512 8.235 9.517 10.9 7.572 6.825 18.209 10.379 28.313 8.611z" fill="#C3705A"/>
<path d="m385.94 146.91h-138.78v118.97h138.78v-118.97z" fill="#463A3E"/>
<path d="m385.94 146.91h-138.78v118.97h138.78v-118.97z" opacity=".05"/>
<path d="m366.05 318.06h-118.73c1.532-8.641 6.015-18.113 14.75-28.322 6.897-8.027 12.538-17.051 16.731-26.766 1.126-2.596 2.136-5.198 3.028-7.806 2.624-7.744 4.409-15.747 5.325-23.872 0-0.23 0.055-0.46 0.079-0.69 0.612-5.614 0.859-11.262 0.739-16.907v-1.212c-0.424-13.853-2.717-27.586-6.815-40.827l-0.151-0.472c-1.291-4.064-2.236-6.347-2.236-6.347s2.357-1.277 6.246-3.161l0.327-0.157c14.302-6.867 48.157-21.195 63.083-10.985l0.243 0.163c5.221 3.719 8.032 10.543 6.711 21.91v0.133c0 0.212-0.048 0.418-0.066 0.606-0.8 7.834-1.178 15.706-1.133 23.58v1.212c0 1.844 0.02 3.714 0.06 5.607v0.763c0.122 6.116 0.394 12.432 0.776 18.839 0.527 8.884 1.278 17.931 2.144 26.809 0.37 3.797 0.769 7.569 1.212 11.281 0.048 0.436 0.097 0.885 0.145 1.315 0.509 4.523 1.036 8.956 1.575 13.255l0.036 0.279c2.06 17.077 4.338 31.986 5.919 41.772z" fill="#C17174"/>
<path d="m355.33 172.63v0.133c-0.854 8.046-1.258 16.132-1.212 24.223v1.211c-7.972 9.25-18.67 15.738-30.56 18.531-11.889 2.794-24.359 1.751-35.618-2.98v-1.211c-0.427-14.02-2.771-27.915-6.966-41.3-1.291-4.063-2.236-6.346-2.236-6.346s2.357-1.278 6.246-3.161c14.162-6.843 48.721-21.619 63.634-11.009 5.216 3.718 8.026 10.543 6.712 21.909z" opacity=".1"/>
<path d="m310.36 217.03c31.889 0 57.74-25.843 57.74-57.722 0-31.88-25.851-57.723-57.74-57.723-31.89 0-57.741 25.843-57.741 57.723 0 31.879 25.851 57.722 57.741 57.722z" fill="#C17174"/>
<path d="m313.42 317.66h-123.18s5.537-26.875 6.325-32.41c0.43-3.027 5.451-13.928 13.587-23.393 10.449-8.333 23.391-12.923 36.757-13.038 23.558-0.351 30.415 7.758 32.274 13.753 0.65 2.01 0.816 4.145 0.485 6.231l4.458 6.456 29.295 42.401z" opacity=".1"/>
<path d="m313.02 318.06h-123.18s5.536-26.875 6.324-32.41c0.43-3.028 5.452-13.928 13.587-23.393 10.449-8.333 23.391-12.923 36.757-13.038 23.558-0.351 30.415 7.757 32.275 13.752 0.649 2.011 0.815 4.146 0.484 6.232l4.459 6.455 29.294 42.402z" fill="#192E4D"/>
<path d="m447.49 317.66h-129.06c6.155-13.092 22.286-47.997 23.183-56.069 0.345-3.125 3.676-6.056 8.086-8.545 1.393-0.797 2.827-1.52 4.295-2.168l0.267-0.121c0.807-0.355 1.625-0.684 2.453-0.987 11.164-4.085 23.43-3.989 34.528 0.273 10.595 4.027 24.23 9.453 34.843 14.533l0.085 0.043c2.726 1.308 5.264 2.585 7.499 3.815 4.471 2.452 7.736 4.693 8.989 6.485 0.576 0.824 1.212 4.536 1.909 10.295 0.926 7.788 1.938 19.342 2.925 32.446z" opacity=".1"/>
<path d="m447.88 318.06h-129.06c6.155-13.092 22.286-47.997 23.182-56.07 0.346-3.124 3.677-6.055 8.087-8.544 1.393-0.797 2.826-1.521 4.295-2.168l0.266-0.121c0.808-0.355 1.626-0.684 2.454-0.987 11.164-4.086 23.43-3.989 34.528 0.272 10.594 4.027 24.23 9.453 34.843 14.534l0.085 0.042c2.726 1.308 5.264 2.586 7.499 3.815 4.47 2.453 7.735 4.694 8.989 6.486 0.576 0.824 1.212 4.536 1.908 10.295 0.933 7.787 1.939 19.348 2.926 32.446z" fill="#192E4D"/>
<path d="m427.11 254.74c0 1.861-0.051 3.724-0.152 5.589-0.056 0.909-0.125 1.817-0.205 2.725-0.055 0.654-0.122 1.302-0.188 1.95l-0.085 0.751c-0.987 8.805-2.811 17.562-3.029 26.409v1.253c-0.042 8.309 1.303 16.49 3.126 24.635h-74.326c-0.121-1.508-0.182-3.028-0.164-4.524 0-1.35 0.085-2.7 0.224-4.057 1.145-11.148 6.845-21.582 7.705-32.658l0.037-0.509c0.054-0.829 0.085-1.665 0.073-2.501v-0.224c-0.095-3.662-0.659-7.297-1.678-10.815-0.049-0.176-0.097-0.352-0.146-0.527-1.038-3.49-2.252-6.926-3.634-10.295l-0.267-0.672c-2.017-5.038-4.137-10.034-5.573-15.042-1.141-3.73-1.731-7.606-1.75-11.506 0-0.696 0.042-1.393 0.096-2.089 0.049-0.57 0.116-1.139 0.2-1.714 0.133-0.899 0.311-1.79 0.533-2.671 1.212-4.771 3.799-9.247 6.276-13.679 2.756-4.936 5.385-9.817 5.858-15.006 0.059-0.657 0.082-1.316 0.066-1.974-0.019-0.849-0.099-1.695-0.242-2.532-0.636-3.682-2.532-6.994-4.089-10.391-0.157-0.345-0.315-0.691-0.466-1.042 0-0.054-0.049-0.109-0.067-0.163-3.029-6.995-4.785-14.455-6.633-21.879-0.079-0.321-0.157-0.642-0.242-0.957-0.455-1.817-0.921-3.634-1.418-5.45-2.713-9.907-6.578-19.917-13.932-27.069s-19.081-10.773-28.289-6.219c-7.965 3.966-12.278 12.844-14.223 21.515-1.944 8.672-2.102 17.725-4.628 26.252-0.182 0.621-0.384 1.241-0.606 1.859-0.109 0.315-0.218 0.605-0.327 0.951-1.084 3.088-2.423 6.146-3.864 9.186l-0.152 0.321c-4.604 9.792-9.952 19.414-10.122 29.255v0.127 0.793c0.031 2.339 0.386 4.662 1.054 6.904 1.211 4.033 3.404 7.551 5.961 10.9 0.504 0.658 1.021 1.31 1.55 1.956 2.544 3.125 5.307 6.153 7.724 9.374l0.078 0.103c1.838 2.38 3.39 4.967 4.622 7.709 1.462 3.435 2.225 7.126 2.246 10.858s-0.702 7.431-2.125 10.882c-0.686 1.595-1.473 3.144-2.356 4.639-1.557 2.688-3.271 5.304-4.622 8.102-0.454 0.939-0.86 1.895-1.211 2.864-3.029 7.8-3.683 16.429-6.155 24.477-1.914 6.179-4.893 11.977-8.801 17.132h-78.749c0.915-4.475 5.452-26.645 6.167-31.623 0.43-3.028 5.452-13.928 13.587-23.393-0.684 0.539-1.345 1.084-1.981 1.629-5.13 4.371-9.575 9.486-13.187 15.176 0.176-0.545 0.357-1.096 0.539-1.641 1.109-3.307 2.308-6.583 3.526-9.817 3.525-9.313 7.45-18.815 14.477-25.876 3.968-3.984 8.796-7.054 12.576-11.215 6.663-7.321 9.419-17.464 9.34-27.408 0-1.029-0.042-2.053-0.109-3.076-0.721-10.9-4.446-21.334-8.48-31.489-2.169-5.451-4.471-11.179-4.368-16.956 7e-3 -0.811 0.065-1.62 0.176-2.423 1.666-11.972 13.781-19.142 21.056-28.8 10.819-14.37 11.606-35.729 25.799-46.762 10.904-8.478 26.048-7.9572 39.816-7.0367 12.806 0.8599 24.364 2.5252 37.073 4.3056 12.708 1.7803 25.605 5.123 35.8 12.953 6.584 5.0505 11.721 11.742 16.282 18.675 6.106 9.29 11.443 19.548 12.176 30.636 0.055 0.793 0.085 1.581 0.085 2.362 0.127 12.959-5.5 25.518-6.245 38.532-0.031 0.606-0.055 1.211-0.061 1.817-4e-3 0.032-4e-3 0.064 0 0.097-0.133 11.281 4.198 23.126 10.092 32.7 8.374 13.644 12.853 29.32 12.951 45.327z" opacity=".1"/>
<path d="m427.11 254.74c0 1.599-0.061 3.203-0.152 4.796-0.056 0.908-0.125 1.817-0.206 2.725-0.08 0.908-0.171 1.809-0.272 2.701-0.988 8.805-2.811 17.561-3.029 26.409v2.04c0.042 8.303 1.448 16.49 3.301 24.635h-74.435c-0.139-1.508-0.224-3.028-0.236-4.524-0.016-1.617 0.059-3.235 0.224-4.844 1.145-11.149 6.845-21.583 7.705-32.658 0.061-0.812 0.103-1.623 0.109-2.423v-0.569c-0.077-3.92-0.686-7.811-1.811-11.566-1.038-3.49-2.252-6.926-3.634-10.295-2.096-5.262-4.344-10.488-5.846-15.745-1.059-3.485-1.647-7.096-1.751-10.736-0.016-0.962 0.016-1.924 0.097-2.883 0.049-0.569 0.116-1.138 0.2-1.714 0.133-0.898 0.311-1.79 0.533-2.67 1.212-4.772 3.798-9.247 6.276-13.68 2.762-4.941 5.403-9.834 5.87-15.03 0.036-0.394 0.054-0.793 0.066-1.211 0.029-1.114-0.052-2.227-0.242-3.325-0.636-3.682-2.532-6.994-4.089-10.391-0.157-0.346-0.315-0.691-0.466-1.042-3.071-7.037-4.846-14.534-6.7-22.043-0.533-2.143-1.078-4.287-1.654-6.413-2.713-9.907-6.578-19.917-13.932-27.068-7.354-7.152-19.063-10.701-28.264-6.123-7.966 3.967-12.279 12.844-14.224 21.516-1.944 8.672-2.102 17.725-4.628 26.251-0.278 0.939-0.605 1.878-0.914 2.81-1.127 3.192-2.532 6.359-4.01 9.508-4.731 10.046-10.238 19.929-10.123 30.048v0.127c0.032 2.339 0.387 4.662 1.054 6.904 1.212 4.033 3.405 7.551 5.961 10.9 0.505 0.658 1.022 1.31 1.551 1.956 2.574 3.161 5.367 6.219 7.802 9.477 1.838 2.379 3.389 4.967 4.622 7.709 1.461 3.434 2.225 7.125 2.245 10.858 0.021 3.732-0.701 7.431-2.124 10.882-0.686 1.594-1.473 3.144-2.356 4.638-1.557 2.689-3.271 5.305-4.622 8.103-0.455 0.938-0.86 1.895-1.212 2.864-3.029 7.8-3.683 16.429-6.154 24.477-2.016 6.497-5.204 12.57-9.408 17.919h-78.39s5.536-26.875 6.324-32.41c0.393-2.768 4.64-12.111 11.606-20.971 0.606-0.811 1.296-1.623 1.981-2.422-5.697 4.501-10.634 9.886-14.623 15.95l-0.539 0.848c1.26-3.869 2.647-7.69 4.07-11.457 3.526-9.314 7.451-18.815 14.478-25.876 3.968-3.985 8.796-7.055 12.575-11.215 6.47-7.128 9.268-16.956 9.341-26.645 0-1.296 0-2.586-0.109-3.87-0.721-10.9-4.446-21.334-8.48-31.489-2.066-5.22-4.241-10.658-4.368-16.193-0.028-1.067 0.031-2.134 0.176-3.191 1.672-11.906 13.787-19.045 21.062-28.734 10.819-14.371 11.606-35.729 25.799-46.762 10.904-8.4779 26.047-7.9572 39.816-7.0367 12.806 0.8599 24.364 2.5252 37.072 4.3056 12.709 1.7803 25.624 5.117 35.807 12.923 6.584 5.0807 11.721 11.742 16.282 18.682 6.106 9.29 11.443 19.548 12.176 30.636 0.073 1.053 0.101 2.105 0.085 3.155-0.103 12.674-5.519 24.992-6.245 37.745-0.049 0.86-0.073 1.714-0.061 2.579-4e-3 0.033-4e-3 0.065 0 0.097 0.073 11.046 4.337 22.564 10.092 31.896 8.52 13.884 13.005 29.867 12.951 46.156z" fill="#463A3E"/>
</g>
<defs>
<linearGradient id="a" x1="336.21" x2="336.21" y1="320.25" y2="41.088" gradientUnits="userSpaceOnUse">
<stop stop-color="#808080" stop-opacity=".25" offset="0"/>
<stop stop-color="#808080" stop-opacity=".12" offset=".54"/>
<stop stop-color="#808080" stop-opacity=".1" offset="1"/>
</linearGradient>
<clipPath id="b">
<rect width="673" height="357" fill="#fff"/>
</clipPath>
</defs>
</svg>
